<svg width="101" height="101" viewBox="0 0 101 101" fill="none" xmlns="http://www.w3.org/2000/svg">
<path fill-rule="evenodd" clip-rule="evenodd" d="M55.3573 52.0331C55.3573 52.0331 53.8085 55.6189 50.4524 57.4806C47.0968 59.3422 43.205 58.7744 43.205 58.7744L55.3573 52.0331ZM30.4795 65.9623C30.4795 65.9623 28.9301 69.5487 25.5746 71.4103C22.2185 73.2714 18.3267 72.7036 18.3267 72.7036L30.4795 65.9623ZM38.5304 52.1589C38.5304 52.1589 34.6381 51.5906 31.2825 53.4522C27.9264 55.3133 26.3782 58.9002 26.3782 58.9002L38.5304 52.1589ZM80.9772 35.4445C78.2365 36.9646 75.0581 36.5016 75.0581 36.5016C75.0581 36.5016 76.3231 33.5719 79.0637 32.0517C81.8044 30.5316 84.9828 30.9957 84.9828 30.9957C84.9828 30.9957 83.7178 33.9243 80.9772 35.4445ZM84.8128 29.6365C82.4362 30.9549 79.6796 30.5512 79.6796 30.5512C79.6796 30.5512 80.7763 28.0122 83.1528 26.6938C85.5299 25.3754 88.2854 25.778 88.2854 25.778C88.2854 25.778 87.1899 28.3182 84.8128 29.6365ZM87.7208 34.7926C85.3442 36.111 82.5887 35.709 82.5887 35.709C82.5887 35.709 83.6849 33.1688 86.0614 31.8505C88.438 30.5321 91.1946 30.9352 91.1946 30.9352C91.1946 30.9352 90.0979 33.4743 87.7208 34.7926ZM91.2292 29.4616C88.8521 30.78 86.096 30.3769 86.096 30.3769C86.096 30.3769 87.1927 27.8378 89.5698 26.5195C91.9464 25.2011 94.7019 25.6031 94.7019 25.6031C94.7019 25.6031 93.6057 28.1433 91.2292 29.4616ZM74.3602 35.2638C71.0041 37.1254 67.1123 36.5565 67.1123 36.5565C67.1123 36.5565 68.6611 32.9707 72.0172 31.109C75.3727 29.2474 79.2645 29.8158 79.2645 29.8158C79.2645 29.8158 77.7163 33.4021 74.3602 35.2638ZM78.0985 41.8922C74.7424 43.7538 70.8506 43.1844 70.8506 43.1844C70.8506 43.1844 72.3994 39.5985 75.755 37.7369C79.1111 35.8753 83.0029 36.4436 83.0029 36.4436C83.0029 36.4436 81.4546 40.0305 78.0985 41.8922ZM59.665 44.2953C59.7327 44.1382 61.3656 40.4307 64.9258 38.4562C68.4854 36.4816 72.5251 37.0418 72.6956 37.0669L73.756 37.2218L73.3342 38.1987C73.2665 38.3553 71.6341 42.0644 68.074 44.0389C64.5144 46.014 60.473 45.4516 60.303 45.4271L59.2432 45.2722L59.665 44.2953Z" fill="#464646"/>
<path fill-rule="evenodd" clip-rule="evenodd" d="M59.2229 46.769L57.1032 46.4586L57.9469 44.5059C57.9876 44.411 58.5612 43.109 59.7366 41.6144L15.2949 66.2662C13.8589 67.0626 13.3457 68.8632 14.1487 70.2873C14.9523 71.7115 16.7673 72.2204 18.2033 71.4235L62.6483 46.7701C60.7458 46.9812 59.3257 46.7842 59.2229 46.769ZM23.824 53.8514C23.824 53.8514 22.2752 57.4372 18.9191 59.2988C15.5636 61.1605 11.6718 60.5926 11.6718 60.5926L23.824 53.8514ZM47.2439 38.3536C44.5032 39.8738 41.3248 39.4107 41.3248 39.4107C41.3248 39.4107 42.5898 36.4811 45.3304 34.9609C48.0711 33.4407 51.2495 33.9049 51.2495 33.9049C51.2495 33.9049 49.9845 36.8335 47.2439 38.3536ZM51.0795 32.5458C48.7029 33.8641 45.9463 33.4605 45.9463 33.4605C45.9463 33.4605 47.043 30.9214 49.4196 29.603C51.7967 28.2847 54.5522 28.6872 54.5522 28.6872C54.5522 28.6872 53.4566 31.2274 51.0795 32.5458ZM53.9874 37.7019C51.6109 39.0202 48.8554 38.6182 48.8554 38.6182C48.8554 38.6182 49.9515 36.0781 52.3281 34.7597C54.7046 33.4413 57.4612 33.8444 57.4612 33.8444C57.4612 33.8444 56.3645 36.3835 53.9874 37.7019ZM57.4959 32.3708C55.1188 33.6892 52.3627 33.2861 52.3627 33.2861C52.3627 33.2861 53.4594 30.747 55.8365 29.4286C58.2131 28.1103 60.9686 28.5123 60.9686 28.5123C60.9686 28.5123 59.8724 31.0525 57.4959 32.3708ZM40.6269 38.1729C37.2708 40.0346 33.379 39.4657 33.379 39.4657C33.379 39.4657 34.9278 35.8798 38.2839 34.0182C41.6394 32.1566 45.5312 32.7249 45.5312 32.7249C45.5312 32.7249 43.983 36.3113 40.6269 38.1729ZM44.3652 44.8014C41.0091 46.663 37.1173 46.0935 37.1173 46.0935C37.1173 46.0935 38.6661 42.5077 42.0216 40.6461C45.3777 38.7844 49.2695 39.3528 49.2695 39.3528C49.2695 39.3528 47.7213 42.9397 44.3652 44.8014ZM25.9318 47.2045C25.9994 47.0474 27.6324 43.3399 31.1925 41.3654C34.7521 39.3908 38.7919 39.951 38.9624 39.9761L40.0228 40.131L39.6009 41.1079C39.5333 41.2645 37.9009 44.9736 34.3407 46.9481C30.7811 48.9232 26.7397 48.3608 26.5698 48.3363L25.5099 48.1814L25.9318 47.2045Z" fill="#464646"/>
<path fill-rule="evenodd" clip-rule="evenodd" d="M26.0031 44.5232L8.5257 54.2181C7.1826 54.9626 6.6326 56.599 7.25575 57.9937C7.9669 59.5848 9.9029 60.2252 11.4341 59.3754L28.9148 49.6794C27.0129 49.8899 25.5922 49.693 25.4894 49.6777L23.3697 49.3679L24.2134 47.4146C24.2541 47.3203 24.8277 46.0183 26.0031 44.5232Z" fill="#464646"/>
</svg>
