<svg width="100" height="100" viewBox="0 0 100 100" fill="none" xmlns="http://www.w3.org/2000/svg">
<path d="M78.9843 58.7969C78.9195 57.7784 78.9843 56.7599 78.9843 55.7414C78.9843 54.341 78.9195 53.0042 78.9843 51.6037C79.049 47.1477 77.1065 43.4557 73.5453 40.9094C65.6457 35.2439 56.7749 33.9071 47.3214 35.8168C42.0766 36.899 37.5441 39.318 34.1123 43.583C32.4936 45.4927 31.9108 47.657 32.4936 50.1396C32.7526 51.0308 32.8821 51.922 33.0763 52.8132C33.3353 54.0227 33.0116 55.1049 31.9756 55.8051C31.1338 56.378 30.2273 56.8872 29.2561 57.2692C27.702 57.9694 26.0185 58.4787 24.4645 59.1789C22.6515 59.9428 21.9393 61.3432 22.004 63.2529C22.0688 64.8443 22.263 66.4358 22.1335 68.0272C22.004 69.7459 22.8458 70.9554 24.1408 71.7829C26.4718 73.247 28.7381 74.7748 31.1986 75.7933C39.3571 79.1035 47.9689 79.74 56.6454 78.2123C63.5737 77.0028 69.9192 74.2656 74.8403 69.0457C77.5598 66.1175 79.1785 62.8073 78.9843 58.7969ZM74.8403 57.6511C71.7323 63.4439 66.617 66.8177 60.4657 68.7274C57.4224 69.6823 54.1849 70.1279 51.0122 70.7008C49.3934 70.9554 47.7099 71.2737 46.3501 71.2737C40.6521 71.401 35.3426 70.3188 30.4863 68.1545C28.7381 67.4543 27.2488 66.2448 25.6948 65.099C25.1768 64.717 24.853 64.0168 24.594 63.3802C24.2055 62.68 24.3998 62.0434 25.112 61.8525C26.2128 61.2796 27.3783 60.7067 28.5438 60.1337C29.9036 59.4972 31.3281 58.9879 32.6231 58.224C35.0188 56.8236 35.7958 54.9139 35.2778 52.1766C35.1483 51.4764 35.0188 50.7762 34.8246 50.076C34.2418 47.9116 34.8893 46.1292 36.3786 44.5378C40.2636 40.4638 45.1199 38.2358 50.7532 37.6629C56.9044 37.0263 62.8615 37.7902 68.3652 40.5911C70.502 41.6096 72.4445 43.1374 74.0633 44.8561C77.1713 48.1026 77.3008 53.0678 74.8403 57.6511Z" fill="#464646"/>
<path d="M69.2783 44.4853C67.0344 43.0949 64.5265 41.9574 61.9526 41.3254C55.8809 39.8719 49.8091 40.3142 44.0674 42.8422C42.8135 43.4109 41.4935 43.9797 40.3056 44.6749C37.7977 46.1916 37.3357 47.6452 38.3256 50.2995C39.7776 54.1546 38.3256 57.504 34.4318 59.2104C33.1119 59.7792 31.7259 60.032 30.406 60.6639C29.614 61.0431 28.4921 61.6751 28.4261 62.3071C28.3601 63.0655 29.218 63.887 29.812 64.5822C30.208 65.0246 30.802 65.2774 31.3959 65.5302C35.6198 67.4261 40.1736 67.7421 44.3974 67.9949C50.4691 68.0581 56.0129 67.5525 61.4246 65.5302C66.3084 63.6974 70.2023 60.7903 72.3802 56.1769C74.4261 51.8794 73.3041 47.0132 69.2783 44.4853ZM69.0143 53.7122C68.5523 54.2178 66.3084 54.0282 65.6485 53.5226C64.9225 52.9538 64.1305 52.385 63.3386 51.8794C62.8106 51.5635 62.2826 51.3107 61.6226 51.2475C60.6327 51.1843 60.3027 51.6898 59.7747 52.1954C59.0487 52.6378 58.5208 53.2698 57.7948 53.7754C57.3988 54.0282 56.8708 54.2178 56.4089 54.1546C56.0789 54.1546 55.5509 53.7122 55.5509 53.3962C55.4849 52.701 55.8809 52.6378 56.2109 52.4482C57.0688 52.0058 57.9268 51.753 58.7848 51.3739C60.0387 50.8051 60.5667 49.8571 60.4347 48.5932C60.3687 47.6452 60.1047 46.7604 59.9727 45.8125C59.9067 45.4965 60.1707 44.5485 60.3687 44.4221C60.7647 44.1693 60.6327 44.1693 61.1607 44.1061C61.2926 44.1061 62.0846 44.3589 62.0846 45.1805C62.0846 45.7493 61.8206 46.3812 61.7546 46.95C61.5566 49.3515 62.6126 50.9947 64.9225 51.8162C65.6485 52.069 67.2324 52.069 68.0244 52.1322C68.8163 52.1954 69.1463 52.6378 69.2123 52.8906C69.2783 53.1434 69.3443 53.333 69.0143 53.7122Z" fill="#464646"/>
</svg>
