<svg width="100" height="100" viewBox="0 0 100 100" fill="none" xmlns="http://www.w3.org/2000/svg">
<path d="M29.8556 55.0699C31.0611 55.2399 32.4389 55.4099 34.5056 54.8999C36.9167 54.3899 37.7778 53.5399 38.9834 52.6899C40.1889 51.6699 41.5667 50.6499 44.4945 49.9699C48.2834 49.1199 49.6611 48.9499 51.7278 48.9499C48.6278 38.2399 42.9445 33.3099 39.6723 31.0999C38.4667 30.2499 37.2611 29.3999 36.2278 28.3799C35.3667 27.3599 33.8167 27.6999 33.8167 27.6999C33.8167 27.6999 32.4389 28.0399 32.0945 29.2299C31.5778 30.7599 30.8889 31.9499 30.2 33.3099C28.1334 36.7099 25.2056 43.6799 27.1 55.0699C28.1334 54.8999 28.9945 55.0699 29.8556 55.0699Z" fill="#464646"/>
<path d="M45.8722 68.5001C45.8722 64.7601 47.4222 61.7001 47.4222 61.3601C49.4889 56.7701 51.7278 53.2001 53.9667 50.3101C50.0056 50.4801 49.4889 50.3101 44.6667 51.3301C39.3278 52.5201 40.0167 55.0701 34.6778 56.2601C29.3389 57.4501 28.9944 55.2401 24 57.2801C24.3444 59.3201 24.8611 61.3601 25.55 63.5701C25.7222 64.0801 26.7556 67.4801 29.3389 70.5401C31.0611 72.5801 33.1278 74.1101 35.3667 74.9601C38.1222 76.1501 41.3944 76.3201 44.6667 75.4701C45.5278 75.3001 46.2167 75.1301 47.0778 74.7901C46.2167 72.9201 45.8722 70.8801 45.8722 68.5001ZM30.8889 64.7601C30.7167 64.7601 30.7167 64.7601 30.5444 64.4201C30.5444 64.2501 30.3722 64.0801 30.2 63.9101C30.2 63.7401 30.0278 63.5701 30.0278 63.4001C30.0278 63.2301 29.8556 63.0601 29.8556 62.8901C29.8556 62.7201 29.8556 62.5501 29.8556 62.3801C29.8556 62.0401 29.8556 61.8701 30.0278 61.8701C30.2 61.8701 30.2 62.0401 30.3722 62.2101C30.3722 62.3801 30.7167 62.3801 30.7167 62.7201C30.7167 62.8901 30.8889 63.0601 30.8889 63.2301C30.8889 63.4001 30.8889 63.5701 30.8889 63.7401C30.8889 63.9101 31.0611 64.0801 31.0611 64.2501C31.0611 64.5901 30.8889 64.7601 30.8889 64.7601ZM33.3 60.0001C33.4722 60.0001 33.4722 60.1701 33.6444 60.3401C33.8167 60.5101 33.9889 60.6801 33.9889 60.8501C33.9889 61.0201 34.1611 61.3601 34.1611 61.5301C34.1611 61.8701 34.1611 62.2101 33.9889 62.2101C33.8167 62.2101 33.6444 62.0401 33.4722 61.8701C33.3 61.7001 33.4722 61.5301 33.3 61.1901C33.3 61.0201 33.1278 60.6801 33.1278 60.5101C33.1278 60.1701 33.1278 60.0001 33.3 60.0001ZM34.3333 67.8201C34.1611 67.8201 33.9889 67.8201 33.8167 67.4801C33.6444 67.3101 33.6444 67.1401 33.6444 66.9701C33.6444 66.8001 33.4722 66.6301 33.3 66.4601C33.3 66.2901 33.3 66.1201 33.1278 65.9501C33.1278 65.7801 33.1278 65.6101 32.9556 65.4401C32.9556 65.2701 32.7833 65.1001 32.7833 64.9301C32.7833 64.7601 32.6111 64.5901 32.6111 64.4201C32.6111 64.0801 32.6111 64.0801 32.7833 64.0801C32.9556 64.0801 32.9556 64.0801 33.1278 64.2501C33.3 64.4201 33.3 64.5901 33.4722 64.7601C33.4722 64.9301 33.6444 65.1001 33.8167 65.2701C33.8167 65.4401 33.8167 65.6101 33.9889 65.7801C33.9889 65.9501 34.1611 66.1201 34.1611 66.2901C34.1611 66.4601 34.3333 66.6301 34.3333 66.8001C34.3333 66.9701 34.1611 67.1401 34.1611 67.3101C34.3333 67.6501 34.3333 67.8201 34.3333 67.8201ZM37.95 70.2001C37.95 70.5401 37.95 70.8801 37.7778 70.8801C37.6056 70.8801 37.6056 70.5401 37.4333 70.3701C37.4333 70.2001 37.2611 70.0301 37.2611 69.6901C37.2611 69.5201 37.2611 69.1801 37.2611 69.0101C37.2611 68.6701 37.2611 68.3301 37.4333 68.3301C37.6056 68.3301 37.7778 68.5001 37.7778 68.8401C37.7778 69.0101 37.95 69.1801 37.95 69.5201C38.1222 69.8601 38.1222 70.0301 37.95 70.2001ZM38.1222 63.7401C38.1222 64.0801 37.95 64.2501 37.7778 64.2501C37.6056 64.2501 37.4333 64.0801 37.4333 63.9101C37.4333 63.7401 37.2611 63.5701 37.0889 63.4001C37.0889 63.2301 37.0889 63.0601 37.0889 62.7201C37.0889 62.5501 36.9167 62.3801 36.9167 62.0401C36.9167 61.8701 36.9167 61.5301 36.9167 61.3601C36.9167 61.0201 37.0889 60.8501 37.0889 60.8501C37.2611 60.8501 37.2611 61.0201 37.4333 61.3601C37.6056 61.5301 37.7778 61.7001 37.7778 61.8701C37.7778 62.0401 38.1222 62.2101 38.1222 62.3801C38.1222 62.5501 38.1222 62.8901 38.1222 63.0601C37.95 63.4001 38.1222 63.5701 38.1222 63.7401ZM40.5333 67.3101C40.3611 67.3101 40.1889 67.1401 40.1889 66.9701C40.1889 66.8001 40.0167 66.6301 40.0167 66.2901C40.0167 65.9501 39.8444 65.7801 39.8444 65.6101C39.8444 65.2701 39.8444 64.9301 40.0167 64.9301C40.1889 64.9301 40.1889 65.1001 40.3611 65.4401C40.3611 65.6101 40.5333 65.7801 40.5333 66.1201C40.5333 66.2901 40.7056 66.6301 40.7056 66.8001C40.7056 67.1401 40.5333 67.3101 40.5333 67.3101ZM41.05 60.5101C40.8778 60.5101 40.7056 60.3401 40.7056 60.0001C40.7056 59.8301 40.5333 59.6601 40.5333 59.3201C40.5333 59.1501 40.5333 58.8101 40.5333 58.6401C40.5333 58.3001 40.5333 58.1301 40.5333 57.9601C40.7056 57.9601 40.8778 58.1301 41.05 58.4701C41.05 58.6401 41.05 58.8101 41.2222 59.1501C41.2222 59.3201 41.3944 59.6601 41.3944 59.8301C41.2222 60.3401 41.2222 60.5101 41.05 60.5101ZM43.2889 71.9001C43.1167 71.9001 42.9444 71.7301 42.7722 71.3901C42.7722 71.2201 42.7722 71.0501 42.6 70.7101C42.6 70.5401 42.6 70.2001 42.6 70.0301C42.6 69.6901 42.6 69.5201 42.7722 69.5201C42.9444 69.5201 42.9444 69.6901 43.1167 70.0301C43.1167 70.2001 43.2889 70.3701 43.2889 70.7101C43.2889 70.8801 43.2889 71.2201 43.4611 71.3901C43.4611 71.5601 43.2889 71.9001 43.2889 71.9001ZM44.3222 66.6301C44.3222 66.9701 44.3222 67.1401 44.15 67.1401C43.9778 67.1401 43.9778 66.9701 43.8056 66.6301C43.8056 66.4601 43.6333 66.2901 43.6333 66.1201C43.6333 65.9501 43.4611 65.7801 43.4611 65.4401C43.4611 65.2701 43.4611 64.9301 43.4611 64.7601C43.4611 64.5901 43.2889 64.2501 43.4611 64.0801C43.4611 63.7401 43.6333 63.5701 43.8056 63.5701C43.9778 63.5701 44.15 63.5701 44.3222 63.9101C44.3222 64.0801 44.3222 64.2501 44.4944 64.5901C44.4944 64.7601 44.6667 64.9301 44.6667 65.1001C44.6667 65.2701 44.6667 65.6101 44.6667 65.7801C44.3222 66.1201 44.4944 66.2901 44.3222 66.6301ZM46.9056 54.7301C47.0778 54.7301 47.25 54.9001 47.4222 55.0701C47.4222 55.2401 47.5944 55.4101 47.5944 55.7501C47.5944 55.9201 47.7667 56.2601 47.7667 56.4301C47.7667 56.7701 47.7667 56.9401 47.5944 57.1101C47.4222 57.2801 47.4222 56.9401 47.25 56.6001C47.25 56.4301 47.0778 56.2601 47.0778 55.9201C47.0778 55.7501 46.9056 55.4101 46.9056 55.2401C46.7333 54.9001 46.7333 54.7301 46.9056 54.7301ZM45.5278 60.6801C45.5278 60.5101 45.3556 60.3401 45.3556 60.1701C45.3556 60.0001 45.1833 59.6601 45.1833 59.4901C45.1833 59.3201 45.1833 58.9801 45.1833 58.8101C45.1833 58.4701 45.1833 58.3001 45.3556 58.1301C45.5278 58.1301 45.7 58.3001 45.8722 58.6401C46.0444 58.8101 46.0444 58.9801 46.0444 59.1501C46.0444 59.3201 46.2167 59.4901 46.3889 59.6601C46.3889 59.8301 46.5611 60.0001 46.5611 60.3401C46.5611 60.5101 46.5611 60.8501 46.5611 61.0201C46.5611 61.3601 46.5611 61.5301 46.3889 61.5301C46.2167 61.5301 46.0444 61.3601 45.8722 61.1901C45.7 61.0201 45.5278 60.8501 45.5278 60.6801Z" fill="#464646"/>
<path d="M77.1074 45.5876C76.7684 44.2286 76.4295 42.6997 76.4295 41.3406C76.26 39.9815 75.0736 39.302 75.0736 39.302C75.0736 39.302 73.8872 38.6225 72.7007 39.302C71.3448 39.9815 70.1584 40.6611 68.6331 41.0008C64.0569 42.3599 55.2436 47.1166 48.4641 62.2361C48.4641 62.2361 42.871 73.788 53.5487 79.3941C64.2264 85.0002 70.6669 74.1278 70.6669 74.1278C79.4802 60.0276 78.4633 50.1745 77.1074 45.5876ZM74.9041 45.9274C74.9041 46.0973 74.9041 46.0973 74.9041 46.2672V46.6069C74.9041 46.7768 74.9041 46.9467 74.9041 47.1166C74.9041 47.2865 74.9041 47.4563 74.9041 47.6262C74.9041 47.7961 74.9041 47.966 74.9041 48.1359V48.6455V49.1552C74.9041 49.325 74.9041 49.4949 74.9041 49.6648L75.0736 50.1745L75.2431 50.6841C75.2431 51.0239 75.4125 51.3636 75.4125 51.8733C75.4125 52.0432 75.4125 52.213 75.582 52.3829L75.7515 52.8926L75.921 53.4022L76.0905 53.9119V54.0817V54.2516C76.0905 54.4215 75.921 54.5914 75.921 54.7613L75.7515 55.2709C75.582 55.6107 75.4125 55.9504 75.2431 56.2902L74.5651 57.1396L74.3956 57.6493L74.2261 58.1589C74.2261 58.3288 74.0566 58.4987 74.0566 58.6686C74.0566 59.0083 73.8872 59.3481 73.8872 59.6878L73.5482 60.1975C73.5482 60.3674 73.5482 60.5373 73.3787 60.7071L73.2092 61.2168C73.2092 61.3867 73.2092 61.5565 73.0397 61.7264C73.0397 62.0662 72.8702 62.406 72.8702 62.9156V63.0855L72.3618 63.5951L72.0228 63.9349C71.8533 64.1048 71.6838 64.2747 71.6838 64.2747C71.5143 64.4445 71.3448 64.6144 71.3448 64.6144L71.0059 64.9542L70.6669 65.2939C70.4974 65.4638 70.3279 65.4638 70.1584 65.6337L69.989 65.8036L69.8195 65.9735L69.989 65.8036L70.1584 65.6337C70.3279 65.4638 70.3279 65.2939 70.4974 65.1241L70.8364 64.6144L71.1754 64.1048C71.3448 63.9349 71.3448 63.765 71.5143 63.5951C71.6838 63.4252 71.6838 63.2554 71.8533 63.0855L72.1923 62.5758L72.5313 62.2361C72.5313 61.8963 72.5313 61.5565 72.7007 61.2168C72.7007 61.0469 72.7007 60.877 72.7007 60.7071V60.1975C72.7007 60.0276 72.7007 59.8577 72.7007 59.6878V59.1782C72.7007 58.8384 72.8702 58.4987 72.8702 58.1589L72.7007 57.3095L72.0228 56.7999L71.8533 56.63V56.4601L71.6838 55.4408L70.8364 55.101L70.6669 53.9119L71.0059 54.9312L72.0228 55.4408V55.6107L72.3618 56.4601L73.2092 56.9697H73.3787L73.5482 56.63L73.7177 56.1203C73.8872 55.7806 74.0566 55.4408 74.2261 55.101L74.3956 54.5914C74.3956 54.4215 74.5651 54.4215 74.5651 54.2516V53.9119V53.4022V52.7227C74.5651 52.5528 74.5651 52.3829 74.5651 52.213C74.5651 51.8733 74.3956 51.5335 74.3956 51.0239V50.5142V50.0046C74.3956 49.8347 74.3956 49.6648 74.3956 49.4949V48.9853V48.4756C74.3956 48.3058 74.3956 48.1359 74.3956 47.966C74.3956 47.7961 74.3956 47.6262 74.3956 47.4563C74.3956 47.2865 74.3956 47.1166 74.5651 46.9467V46.6069C74.7346 46.0973 74.7346 46.0973 74.9041 45.9274C74.7346 45.7575 74.9041 45.5876 74.9041 45.4178C74.9041 45.5876 74.9041 45.7575 74.9041 45.9274ZM68.972 46.7768L69.65 47.1166L69.989 47.6262L70.4974 47.966V48.1359V48.3058L70.6669 48.1359V47.966V47.7961V47.6262V47.4563V47.2865C70.6669 47.1166 70.6669 46.9467 70.4974 46.7768V46.6069L70.6669 46.4371L70.8364 46.2672L71.0059 46.0973L71.1754 45.9274L71.3448 45.7575L71.5143 45.5876L71.6838 45.4178L71.8533 45.2479L72.0228 45.078C72.0228 45.078 72.0228 45.2479 71.8533 45.2479C71.8533 45.2479 71.8533 45.4178 71.6838 45.4178C71.6838 45.4178 71.6838 45.5876 71.5143 45.5876C71.5143 45.5876 71.5143 45.7575 71.3448 45.7575C71.3448 45.7575 71.3448 45.9274 71.1754 45.9274C71.1754 45.9274 71.1754 46.0973 71.0059 46.0973L71.1754 46.6069C71.1754 46.7768 71.1754 46.7768 71.3448 46.9467C71.3448 46.9467 71.3448 47.1166 71.5143 47.1166V47.2865V47.4563V47.6262L71.6838 47.966V48.1359L71.5143 48.3058C71.3448 48.4756 71.3448 48.4756 71.1754 48.6455C71.0059 48.8154 71.0059 48.8154 70.8364 48.9853L70.6669 49.1552L70.4974 49.325L70.3279 49.4949V49.6648C70.3279 49.8347 70.3279 50.0046 70.4974 50.0046C70.4974 50.1745 70.4974 50.3443 70.6669 50.3443V50.5142V50.6841V50.854C70.4974 51.0239 70.4974 51.0239 70.3279 51.1937L70.1584 51.3636L69.989 51.5335L69.8195 51.7034L69.65 51.8733L69.4805 52.0432L69.311 52.213C69.311 52.213 69.311 52.0432 69.4805 52.0432C69.4805 52.0432 69.4805 51.8733 69.65 51.8733C69.65 51.8733 69.65 51.7034 69.8195 51.7034L69.989 51.5335C69.989 51.5335 69.989 51.3636 70.1584 51.3636C70.1584 51.3636 70.1584 51.1937 70.3279 51.1937L70.4974 51.0239C70.4974 51.0239 70.4974 51.0239 70.4974 50.854L70.3279 50.6841C70.3279 50.5142 70.1584 50.3443 70.1584 50.3443C70.1584 50.1745 69.989 50.0046 69.989 50.0046C69.989 49.8347 69.8195 49.6648 69.8195 49.6648V49.4949L69.989 49.325C69.989 49.325 69.989 49.1552 70.1584 49.1552V48.9853L69.989 48.4756L69.4805 48.1359V47.4563L68.972 46.7768L68.6331 46.0973L68.972 46.7768ZM65.5823 51.7034L65.4128 52.8926L65.7518 53.9119C65.9213 53.742 65.9213 53.5721 66.0907 53.4022C66.2602 53.2323 66.2602 53.0624 66.4297 52.8926L66.5992 52.7227H66.7687C66.9382 52.7227 66.9382 52.7227 67.1077 52.7227H67.4466C67.6161 52.7227 67.6161 52.7227 67.7856 52.7227C67.9551 52.7227 67.9551 52.7227 68.1246 52.7227C68.2941 52.7227 68.2941 52.7227 68.4636 52.7227C68.6331 52.7227 68.6331 52.7227 68.8025 52.7227C68.972 52.7227 68.972 52.7227 69.1415 52.7227C69.311 52.7227 69.311 52.7227 69.4805 52.7227L69.311 52.8926C69.1415 52.8926 69.1415 53.0624 68.972 53.0624C68.8025 53.0624 68.8025 53.2323 68.6331 53.2323C68.4636 53.2323 68.4636 53.4022 68.2941 53.4022C68.1246 53.4022 68.1246 53.5721 67.9551 53.5721C67.7856 53.5721 67.7856 53.742 67.6161 53.742L67.2772 53.9119C67.2772 53.9119 67.2772 53.9119 67.1077 53.9119C67.1077 54.0817 66.9382 54.2516 66.9382 54.4215C66.9382 54.5914 66.7687 54.7613 66.5992 54.9312C66.4297 55.101 66.4297 55.2709 66.2602 55.4408C66.0907 54.9312 66.0907 55.101 65.9213 55.2709V55.4408H65.7518C65.5823 55.4408 65.4128 55.6107 65.2433 55.6107L64.9043 55.7806L64.5654 55.9504C64.5654 55.9504 64.5654 55.9504 64.3959 55.9504H64.5654H65.5823H65.7518L66.5992 56.63H67.6161L68.6331 57.3095L67.7856 56.9697L66.5992 57.1396L65.5823 56.7999H64.5654H64.3959L63.7179 56.4601C63.7179 56.4601 63.7179 56.63 63.5484 56.63C63.3789 56.7999 63.3789 56.9697 63.2095 57.1396C63.04 57.3095 63.04 57.4794 62.8705 57.6493L62.701 57.8191L62.5315 57.989L62.362 58.1589H62.1925H61.8536H61.5146C61.3451 58.1589 61.3451 58.1589 61.1756 58.1589C61.0061 58.1589 61.0061 58.1589 60.8366 58.1589C60.6671 58.1589 60.6671 58.1589 60.4977 58.1589C60.3282 58.1589 60.3282 58.1589 60.1587 58.1589C59.9892 58.1589 59.8197 58.1589 59.4807 58.3288C59.6502 58.1589 59.8197 58.1589 59.9892 57.989C60.1587 57.989 60.1587 57.8191 60.3282 57.8191C60.4977 57.8191 60.4977 57.6493 60.6671 57.6493C60.8366 57.6493 60.8366 57.4794 61.0061 57.4794C61.1756 57.4794 61.1756 57.3095 61.3451 57.3095L61.6841 57.1396H61.8536C61.8536 57.1396 61.8536 56.9697 62.023 56.9697L62.1925 56.63C62.1925 56.4601 62.362 56.2902 62.5315 56.1203C62.701 55.9504 62.701 55.7806 62.8705 55.6107C63.04 55.4408 63.04 55.2709 63.2095 55.101V54.9312H63.3789C63.7179 54.7613 64.0569 54.5914 64.5654 54.4215L64.9043 54.2516H65.0738L65.4128 53.2323L65.2433 52.213V52.0432L65.5823 51.0239L65.4128 50.0046L65.7518 48.8154L65.5823 50.0046V51.7034ZM49.82 73.9579C49.82 73.788 49.82 73.6182 49.82 73.4483C49.82 73.2784 49.82 73.1085 49.82 72.9386C49.82 72.7688 49.82 72.5989 49.82 72.429C49.82 72.2591 49.82 72.0892 49.82 71.9193V71.4097V70.9001C49.82 70.7302 49.82 70.7302 49.82 70.5603C49.82 70.2205 49.6505 70.0506 49.6505 69.7109C49.6505 69.3711 49.481 69.2012 49.481 68.8615C49.481 68.5217 49.481 68.3518 49.3115 68.0121V67.5024C49.3115 67.3325 49.3115 67.1626 49.3115 66.9928V66.8229V66.653L49.6505 65.8036C49.6505 65.6337 49.82 65.4638 49.82 65.4638L49.9894 65.1241C50.1589 64.7843 50.3284 64.6144 50.3284 64.2747C50.4979 64.1048 50.4979 63.765 50.6674 63.5951L51.3453 60.1975V60.0276L51.5148 59.8577L52.7012 58.4987L53.2097 57.8191L53.7182 57.1396L54.3961 55.6107C54.5656 55.101 54.9046 54.5914 55.0741 53.9119V53.742L55.2436 53.5721L56.5995 52.3829L57.9554 51.3636C58.2943 50.854 58.4638 50.3443 58.8028 50.0046L59.3113 49.325L59.8197 48.6455V48.4756L61.3451 47.6262L62.8705 46.7768L63.8874 45.4178L64.3959 44.7382C64.5654 44.5684 64.7348 44.2286 64.9043 44.0587L66.5992 43.3792L67.4466 43.0394C67.7856 42.8695 67.9551 42.8695 68.2941 42.6997C67.9551 42.8695 67.7856 43.0394 67.4466 43.0394L66.5992 43.3792L65.7518 44.9081C65.5823 45.078 65.4128 45.4178 65.2433 45.5876L64.7348 46.2672L63.7179 47.6262L62.1925 48.6455L60.8366 49.4949L60.4977 50.1745L59.9892 51.0239C59.6502 51.5335 59.4807 52.0432 59.1418 52.5528L57.6164 53.9119L56.43 55.101C56.2605 55.4408 56.2605 55.7806 56.091 56.1203H56.5995L58.1248 55.101H58.2943L60.1587 54.9312L61.6841 53.742L63.7179 53.5721L61.8536 54.0817L60.4977 55.4408H60.3282L58.4638 55.9504L57.2774 56.7999H57.1079L55.752 57.1396L55.413 57.989V58.1589L54.9046 58.8384L54.3961 59.518L53.3792 60.7071L52.7012 64.1048V64.2747C52.5318 64.6144 52.3623 64.7843 52.3623 65.1241C52.1928 65.4638 52.0233 65.6337 52.0233 65.9735L51.8538 66.3132C51.8538 66.4831 51.6843 66.653 51.6843 66.653L51.3453 67.3325V67.5024V68.0121C51.3453 68.3518 51.3453 68.5217 51.3453 68.8615C51.3453 69.2012 51.3453 69.3711 51.3453 69.7109C51.3453 70.0506 51.3453 70.2205 51.3453 70.5603C51.3453 70.7302 51.3453 70.9 51.1759 71.0699L51.0064 71.5796L50.8369 72.0892C50.8369 72.2591 50.8369 72.429 50.6674 72.5989C50.6674 72.7688 50.6674 72.9386 50.4979 73.1085C50.4979 73.2784 50.3284 73.4483 50.3284 73.6182C49.9894 73.6182 49.9894 73.788 49.82 73.9579C49.9894 74.1278 49.82 74.2977 49.82 74.4676C49.82 74.2977 49.82 74.1278 49.82 73.9579ZM57.6164 69.7109L57.1079 70.2205L56.43 70.3904L55.9215 70.9001H55.752L55.413 71.0699V71.2398V71.5796V71.9193V72.0892C55.2436 72.2591 55.2436 72.2591 55.0741 72.429L54.2266 73.1085C54.0571 73.2784 54.0571 73.2784 53.8877 73.4483C53.7182 73.6182 53.7182 73.6182 53.5487 73.788C53.3792 73.9579 53.3792 73.9579 53.2097 74.1278C53.0402 74.2977 53.0402 74.2977 52.8707 74.4676C52.7012 74.6375 52.7012 74.6375 52.5318 74.6375C52.3623 74.6375 52.3623 74.8073 52.1928 74.8073C52.1928 74.6375 52.3623 74.6375 52.3623 74.4676C52.3623 74.2977 52.5318 74.2977 52.5318 74.1278C52.5318 73.9579 52.7012 73.9579 52.7012 73.788C52.7012 73.6182 52.8707 73.6182 52.8707 73.4483C52.8707 73.2784 53.0402 73.2784 53.0402 73.1085C53.0402 72.9386 53.2097 72.9386 53.2097 72.7688L53.3792 72.429C53.3792 72.429 53.3792 72.2591 53.5487 72.2591V71.9193V71.5796C53.5487 71.4097 53.5487 71.2398 53.5487 71.2398V70.9001V70.5603V70.2205C53.5487 69.8808 53.5487 69.7109 53.5487 69.3711V69.2012L53.7182 69.0313L53.8877 68.6916L54.0571 68.5217L54.2266 67.5024L53.8877 66.653V66.4831L54.0571 65.4638L53.7182 64.4445L53.8877 63.2554V64.4445L54.3961 65.4638V66.4831L54.9046 67.3325C54.9046 67.1626 55.0741 67.1626 55.0741 66.9928C55.0741 66.9928 55.0741 66.9928 55.2436 66.8229C55.2436 66.653 55.2436 66.4831 55.2436 66.3132C55.2436 65.9735 55.2436 65.8036 55.2436 65.4638C55.2436 65.1241 55.2436 64.9542 55.2436 64.6144C55.2436 64.2747 55.2436 64.1048 55.2436 63.765V63.5951L55.413 63.4252C55.5825 63.2554 55.752 63.0855 55.9215 62.9156L56.091 62.7457L56.2605 62.5758C56.43 62.406 56.43 62.406 56.5995 62.2361C56.7689 62.0662 56.7689 62.0662 56.9384 62.0662C57.1079 62.0662 57.1079 61.8963 57.2774 61.8963C57.2774 61.8963 57.4469 61.8963 57.4469 61.7264C57.4469 61.7264 57.6164 61.7264 57.6164 61.5565C57.7859 61.5565 57.7859 61.3867 57.9554 61.3867C57.9554 61.5565 57.7859 61.5565 57.7859 61.7264C57.7859 61.7264 57.7859 61.8963 57.6164 61.8963C57.6164 61.8963 57.6164 62.0662 57.4469 62.0662C57.4469 62.2361 57.2774 62.2361 57.2774 62.406C57.2774 62.5758 57.1079 62.5758 57.1079 62.7457C57.1079 62.9156 56.9384 62.9156 56.9384 63.0855L56.7689 63.2554C56.7689 63.2554 56.7689 63.4252 56.5995 63.4252C56.43 63.5951 56.43 63.765 56.2605 63.9349C56.2605 64.1048 56.2605 64.4445 56.2605 64.6144C56.2605 64.9542 56.2605 65.1241 56.2605 65.4638C56.2605 65.8036 56.2605 65.9735 56.2605 66.3132C56.2605 66.653 56.2605 66.8229 56.2605 67.1626V67.3325L56.091 67.5024C56.091 67.6723 55.9215 67.6723 55.9215 67.8422C55.9215 68.0121 55.752 68.0121 55.752 68.1819C55.5825 68.3518 55.413 68.5217 55.2436 68.6916C55.0741 68.8615 54.9046 69.0314 54.7351 69.2012L54.5656 69.541L54.3961 69.7109C54.3961 69.8808 54.3961 70.0506 54.3961 70.2205V70.5603H54.5656L55.0741 70.2205H55.2436H56.091L56.7689 69.8808H57.6164V69.7109ZM58.2943 75.317L57.7859 75.4869L57.2774 75.6567C57.1079 75.6567 56.9384 75.8266 56.7689 75.8266C56.5995 75.8266 56.43 75.9965 56.2605 75.9965C56.43 75.8266 56.5995 75.8266 56.7689 75.6567C56.9384 75.4869 57.1079 75.4869 57.2774 75.317L57.7859 74.9772L58.2943 74.6375L58.8028 74.2977C58.9723 74.1278 59.1418 74.1278 59.3113 73.9579C59.4807 73.788 59.6502 73.788 59.8197 73.6182L60.1587 73.4483C60.1587 73.2784 60.3282 73.1085 60.3282 72.9386L60.4977 72.429L60.8366 71.9193L61.0061 71.5796C61.0061 71.4097 61.0061 71.4097 61.1756 71.2398L61.5146 70.7302L61.6841 70.3904C61.6841 70.2205 61.8536 70.2205 61.8536 70.0506L62.362 69.0313H62.5315L63.2095 68.3518L63.5484 66.8229L62.701 65.6337V65.4638L63.04 63.765L62.5315 62.0662L62.8705 60.1975V62.0662L63.5484 63.765V63.9349V65.6337L64.2264 67.3325V67.5024V67.6723L64.3959 67.5024L64.9043 67.1626L65.2433 66.8229L65.4128 66.4831C65.4128 66.3132 65.5823 66.1434 65.5823 65.9735L65.7518 65.4638C65.7518 65.2939 65.9213 65.1241 65.9213 64.9542L66.0907 64.4445L66.2602 63.9349C66.2602 63.765 66.4297 63.5951 66.4297 63.4252L66.5992 62.9156V62.7457L66.7687 62.5758L66.9382 62.406C67.1077 62.2361 67.1077 62.0662 67.2772 61.8963L67.6161 61.3867L67.9551 60.877C68.1246 60.7071 68.1246 60.5373 68.2941 60.3674C68.4636 60.1975 68.4636 60.0276 68.6331 59.8577L68.8025 59.6878L68.972 59.518C69.1415 59.3481 69.311 59.1782 69.311 59.0083C69.311 59.1782 69.1415 59.3481 69.1415 59.518C69.1415 59.6878 68.972 59.6878 68.972 59.8577L68.8025 60.1975C68.6331 60.3674 68.6331 60.5373 68.4636 60.7071C68.2941 60.877 68.2941 61.0469 68.1246 61.2168L67.7856 61.7264L67.4466 62.2361C67.9551 61.8963 67.7856 62.0662 67.7856 62.2361L67.6161 62.406C67.6161 62.406 67.6161 62.5758 67.4466 62.5758L67.2772 63.0855C67.2772 63.2554 67.1077 63.4252 67.1077 63.5951L66.9382 64.1048L66.7687 64.6144C66.7687 64.7843 66.5992 64.9542 66.5992 65.1241L66.4297 65.6337C66.4297 65.8036 66.2602 65.9735 66.2602 66.1434L66.4297 66.9928V67.1626L66.2602 67.3325L65.9213 67.6723L65.4128 68.0121L64.9043 68.3518L64.3959 68.6916L63.8874 69.0313C63.7179 69.2012 63.5484 69.2012 63.3789 69.3711L62.8705 70.3904L62.5315 71.0699H62.8705L64.3959 70.2205H64.5654L66.4297 70.0506L67.9551 69.2012L69.8195 69.0313L67.9551 69.3711L66.4297 70.5603L64.7348 70.9001L63.3789 72.0892H63.2095L61.8536 72.429C61.8536 72.429 61.8536 72.429 61.8536 72.5989L61.6841 72.7688L61.3451 73.2784L60.8366 73.788C60.6671 73.9579 60.6671 74.1278 60.4977 74.2977L60.3282 74.4676H60.1587L59.6502 74.6375C59.4807 74.6375 59.3113 74.8073 59.1418 74.8073C58.9723 74.8073 58.8028 74.9772 58.6333 74.9772L58.2943 75.317ZM67.7856 73.2784L67.6161 73.4483L67.4466 73.6182L67.2772 73.788L67.1077 73.9579L66.9382 74.1278L66.5992 74.2977C66.5992 74.2977 66.4297 74.2977 66.4297 74.4676L66.2602 74.6375L66.0907 74.8073C65.9213 74.9772 65.9213 75.1471 65.7518 75.317C65.5823 75.6567 65.2433 75.9965 64.9043 76.3363L64.7348 76.5062H64.5654C64.3959 76.5062 64.2264 76.676 63.8874 76.676H63.5484H63.2095C63.04 76.676 62.8705 76.8459 62.5315 76.8459C62.362 76.8459 62.1925 76.8459 62.023 77.0158C61.8536 77.1857 61.6841 77.1857 61.6841 77.3556L61.3451 77.5254C61.1756 77.5254 61.1756 77.6953 61.0061 77.6953C60.8366 77.8652 60.6671 77.8652 60.4977 78.0351C60.3282 78.205 60.1587 78.205 59.9892 78.3749H59.8197H59.4807H59.1418C58.9723 78.3749 58.9723 78.3749 58.8028 78.3749C58.6333 78.3749 58.6333 78.3749 58.4638 78.3749C58.2943 78.3749 58.2943 78.3749 58.1248 78.3749C57.9554 78.3749 57.9554 78.3749 57.7859 78.3749C57.6164 78.3749 57.4469 78.3749 57.1079 78.205C57.2774 78.205 57.4469 78.0351 57.7859 78.0351C57.9554 78.0351 57.9554 78.0351 58.1248 78.0351C58.2943 78.0351 58.2943 78.0351 58.4638 78.0351C58.6333 78.0351 58.6333 78.0351 58.8028 78.0351C58.9723 78.0351 58.9723 78.0351 59.1418 78.0351H59.4807H59.6502C59.8197 77.8652 59.9892 77.8652 59.9892 77.6953C60.1587 77.5254 60.3282 77.3556 60.4977 77.3556L60.6671 77.1857L60.8366 77.0158C61.0061 76.8459 61.1756 76.676 61.3451 76.676H61.5146C61.6841 76.676 61.8536 76.5062 62.023 76.5062C62.1925 76.5062 62.362 76.3363 62.701 76.3363H63.04H63.3789C63.5484 76.3363 63.7179 76.3363 63.8874 76.1664C64.0569 75.8266 64.3959 75.6567 64.5654 75.317C64.7348 75.1471 64.9043 74.9772 65.0738 74.8073L65.2433 74.6375L65.4128 74.4676C65.5823 74.4676 65.5823 74.4676 65.7518 74.2977L66.0907 74.1278L66.4297 73.9579C66.5992 73.9579 66.5992 73.9579 66.7687 73.788C66.9382 73.788 66.9382 73.788 67.1077 73.6182C67.2772 73.6182 67.2772 73.6182 67.4466 73.4483C67.6161 73.1085 67.6161 73.1085 67.7856 73.2784C67.7856 73.1085 67.9551 73.1085 67.9551 73.1085C67.9551 73.1085 67.9551 73.1085 67.7856 73.2784Z" fill="#464646"/>
</svg>
