<svg width="100" height="100" viewBox="0 0 100 100" fill="none" xmlns="http://www.w3.org/2000/svg">
<path fill-rule="evenodd" clip-rule="evenodd" d="M81.6008 50.95C80.1103 51.1331 78.6567 50.0764 78.4613 48.4853C78.2775 46.9878 79.3276 45.5288 80.9112 45.3343C82.4017 45.1513 83.8553 46.2079 84.0507 47.799C84.246 49.3902 83.1844 50.7556 81.6008 50.95ZM76.6132 61.1581C76.4499 61.3682 76.1819 61.4961 75.9025 61.5304C75.623 61.5647 75.4252 61.494 75.1227 61.3411C68.8669 56.5988 67.27 50.5245 70.5517 44.1361L70.6333 44.0311C70.7737 43.6339 71.0302 43.4124 71.4959 43.3552C72.0549 43.2865 72.5781 43.6973 72.6471 44.2589C72.693 44.6333 72.5297 44.8433 72.3779 45.147C70.3925 49.001 69.4869 54.7176 76.3592 59.8592C76.8594 60.0828 76.9399 60.738 76.6132 61.1581ZM92.0432 51.283C91.1129 50.6372 90.6483 49.9342 90.5679 49.279C90.4874 48.6238 90.7566 47.7357 91.3984 46.8018C90.0495 45.8274 86.212 43.0684 80.9071 40.6795C75.6021 38.2907 68.8296 36.272 61.3082 36.6255C60.563 36.717 59.8063 36.7149 59.061 36.8064C55.9331 34.4353 51.8506 31.9914 48.7306 31.9944C46.8741 35.3576 46.9164 38.0126 47.0888 39.4165C46.6345 39.5673 46.1802 39.7181 45.7374 39.9625C31.7006 45.0112 23.1998 53.5605 23.1998 53.5605C20.433 51.05 14.0265 45.8512 6.64671 45.0472C7.3284 48.2887 9.08076 51.7788 10.3226 54.1915C11.193 55.8898 11.5644 56.6042 11.6794 57.5402C11.7713 58.2889 11.6412 59.54 11.2075 61.3984C10.5862 64.0398 9.73024 67.8502 9.84151 71.0667C16.8076 68.5013 21.812 62.2814 23.9123 59.3634C25.4475 60.315 27.2737 61.3258 29.3909 62.396C28.5512 63.2591 27.0583 64.9625 27.6505 65.9349C29.3339 68.8634 36.6127 67.3046 39.5133 66.2834C41.282 66.8263 43.214 67.1591 45.1461 67.4919C45.9258 67.6812 46.6009 67.7883 47.3691 67.884C46.6892 70.8177 46.3461 74.185 47.2293 75.2167C47.3339 75.2988 47.4501 75.4746 47.9159 75.4174C49.0337 75.2801 55.4868 73.1577 61.793 68.2981C78.8634 66.3922 88.0417 56.4296 88.0417 56.4296C90.0476 54.2832 91.3427 52.5091 92.0432 51.283Z" fill="#464646"/>
<path fill-rule="evenodd" clip-rule="evenodd" d="M80.9605 47.1797C81.7825 47.0788 82.5312 47.6637 82.6321 48.4858C82.7331 49.3078 82.1481 50.0564 81.3261 50.1574C80.5041 50.2583 79.7554 49.6734 79.6545 48.8514C79.5535 48.0293 80.1385 47.2807 80.9605 47.1797Z" fill="#464646"/>
</svg>
