<svg width="101" height="101" viewBox="0 0 101 101" fill="none" xmlns="http://www.w3.org/2000/svg">
<path fill-rule="evenodd" clip-rule="evenodd" d="M84.2708 30.2073C80.2572 29.4375 78.5353 29.9176 77.3935 29.911C76.005 29.9029 75.3664 29.1773 74.5008 29.3286C73.4448 29.5131 76.0403 31.5406 76.1156 31.8448C76.431 32.3175 75.8981 32.9236 76.3084 33.4773C76.8556 34.2156 77.8352 34.3564 78.1177 34.5099C78.624 35.0427 79.088 37.5425 79.7113 37.4502C80.9067 37.2731 80.483 35.9924 80.9 35.5971C82.6378 33.9497 84.54 33.4195 87.429 34.2262C86.2466 32.7907 85.4533 31.6429 84.2708 30.2073ZM41.553 46.9649C41.5159 46.9851 37.803 49.0224 33.9312 51.826C28.8812 55.4832 25.8531 58.7658 25.1741 61.3194C25.1067 61.573 24.8706 61.7414 24.6118 61.7414C24.5639 61.7414 24.5152 61.7357 24.4667 61.7236C24.1559 61.6464 23.9687 61.34 24.0486 61.0395C25.8328 54.3292 40.3636 46.3239 40.9813 45.9864C41.2605 45.8335 41.6151 45.9291 41.773 46.1993C41.9308 46.4695 41.8323 46.8122 41.553 46.9649ZM77.8306 36.3136C77.6669 35.8921 77.4672 35.378 77.3283 35.1581C77.2842 35.1359 77.2259 35.1087 77.1786 35.0865C77.1472 35.0719 77.1136 35.0561 77.0791 35.0398C76.7098 34.8646 76.175 34.5843 75.7515 34.0355C75.7759 34.0409 75.8 34.047 75.8242 34.0527C75.7997 34.0469 75.7756 34.0404 75.7509 34.0348C75.7154 33.9887 75.6805 33.9413 75.6467 33.8914C75.347 33.4483 75.3644 33.019 75.3772 32.7055C75.3864 32.4805 75.3889 32.3375 75.3278 32.2391L75.2912 32.1802L75.2852 32.1597C75.2172 32.0618 75.0029 31.8173 74.8282 31.6181C74.0019 30.6759 73.4621 30.0208 73.4859 29.5192C73.4877 29.4824 73.4933 29.4473 73.5009 29.4135C68.2064 28.7101 60.1392 32.9543 51.2346 37.8772C47.5687 39.9038 35.1843 44.4785 27.6615 50.8891C19.0712 58.2094 19.2032 62.8665 20.9438 65.8951C20.9875 65.9712 21.0322 66.0464 21.0778 66.1204C22.926 69.1186 29.2306 70.0224 38.6976 66.0903C42.234 64.6214 56.6882 54.5269 60.8 51.9189C68.55 47.0035 77.2938 43.4103 79.1431 38.3092C78.5814 38.2464 78.2468 37.3854 77.8306 36.3136Z" fill="#464646"/>
</svg>
