<svg width="100" height="100" viewBox="0 0 100 100" fill="none" xmlns="http://www.w3.org/2000/svg">
<path fill-rule="evenodd" clip-rule="evenodd" d="M71.9606 26.5493C62.5732 21.3696 51.2385 27.1702 46.6321 39.5068C52.3666 40.1441 56.5835 42.9709 57.255 47.2519C57.4162 48.3304 57.349 49.4251 57.0804 50.5199C57.2013 57.3336 55.2003 63.8369 51.5205 68.412C52.6486 69.5232 53.911 70.4872 55.2943 71.2552C64.6817 76.4349 76.0164 70.6343 80.6228 58.2813C85.2292 45.9447 81.348 31.7291 71.9606 26.5493ZM70.5908 40.5853C69.7715 41.484 68.4017 41.2715 67.5422 40.0951C66.6827 38.9186 66.6558 37.2519 67.4885 36.3532C68.3077 35.4545 69.6775 35.6833 70.537 36.8434C71.3831 38.0036 71.41 39.6866 70.5908 40.5853ZM70.6848 33.2813C69.8656 34.18 68.4957 33.9513 67.6362 32.7911C66.7767 31.6147 66.7499 29.948 67.5825 29.0493C68.4017 28.1506 69.7715 28.3794 70.631 29.5395C71.4771 30.6996 71.504 32.3826 70.6848 33.2813ZM75.5195 38.0036C74.6868 38.9023 73.3304 38.6735 72.4709 37.5134C71.6114 36.3369 71.5846 34.6702 72.4038 33.7715C73.2364 32.8728 74.5928 33.1016 75.4523 34.2617C76.3118 35.4219 76.3387 37.1049 75.5195 38.0036Z" fill="#464646"/>
<path fill-rule="evenodd" clip-rule="evenodd" d="M55.8447 48.0358C54.8241 41.7777 45.7187 38.7058 35.5121 41.1731C25.3592 43.6241 17.946 50.6502 18.886 56.892L18.8323 56.9084C19.1009 57.9215 19.4098 58.9019 19.7858 59.8986C24.446 72.2188 35.8075 77.9541 45.1681 72.709C51.9769 68.9019 55.8581 60.3234 55.6701 51.1894C55.9522 50.1273 56.0193 49.0653 55.8447 48.0358ZM38.5875 60.3561C29.2941 62.611 21.0751 60.2581 20.229 55.111C19.3829 49.9639 26.2455 43.9509 35.5389 41.7123C44.8323 39.4574 53.0648 41.8103 53.8974 46.9574C54.7435 52.1045 47.8809 58.1012 38.5875 60.3561Z" fill="#464646"/>
<path fill-rule="evenodd" clip-rule="evenodd" d="M50.7546 47.611C50.3517 45.1273 47.7195 43.4116 43.7174 43.0031C41.4343 42.7744 38.8558 42.9868 36.2505 43.6077C35.7401 43.7221 35.2567 43.7221 34.7598 43.8691C33.9405 44.0652 33.1616 44.4247 32.4364 44.6698C26.7153 46.5979 22.6595 50.7319 23.3713 53.9018C23.5862 54.8495 24.2174 55.6175 25.1441 56.1567C26.3259 57.4803 28.4209 58.3789 31.1606 58.6567C33.4436 58.8855 36.0222 58.6731 38.6275 58.0522C42.1461 57.2025 45.3424 55.6665 47.6255 53.7384C49.9757 51.7776 51.0903 49.6044 50.7546 47.611ZM47.3032 53.1992C45.0872 55.0783 41.9581 56.5652 38.5201 57.3986C35.9684 58.0195 33.4436 58.2156 31.2143 57.9868C28.4343 57.709 26.3796 56.794 25.3589 55.4704C25.2381 55.2417 25.1441 54.9803 25.0769 54.7188C24.3517 51.5489 28.4075 47.4149 34.142 45.4868C37.392 44.392 42.7639 43.3626 44.9529 44.0162C44.8589 43.9508 44.7515 43.8855 44.6441 43.8364C47.8403 44.3593 49.8951 45.7972 50.2174 47.758C50.486 49.441 49.4519 51.3855 47.3032 53.1992Z" fill="#464646"/>
</svg>
