<svg width="100" height="100" viewBox="0 0 100 100" fill="none" xmlns="http://www.w3.org/2000/svg">
<path fill-rule="evenodd" clip-rule="evenodd" d="M74.3961 74.2861C73.5573 75.1267 72.2878 75.409 71.1648 75.001C70.5118 74.765 69.7838 74.9277 69.2935 75.4174C68.8027 75.9071 68.6394 76.6363 68.8747 77.2886C69.281 78.4122 68.9992 79.6823 68.1604 80.5229C67.5772 81.1056 66.8027 81.4261 65.9788 81.4261H65.9776C65.1537 81.4261 64.3775 81.105 63.796 80.5217C62.6021 79.3279 62.5926 77.3899 63.7692 76.1853C63.7841 76.1716 63.7996 76.1567 63.8097 76.1472C64.1576 75.8147 64.3566 75.3566 64.3626 74.8753C64.3673 74.3945 64.1785 73.9316 63.8389 73.592L60.7917 70.5448L64.4186 66.9179L67.4646 69.9651C67.8042 70.3053 68.2444 70.4947 68.7478 70.4888C69.2286 70.4834 69.6855 70.285 70.0186 69.9383C70.0269 69.9294 70.0406 69.9145 70.0549 69.9002C70.6346 69.3313 71.4013 69.0185 72.2145 69.0185C73.0384 69.0185 73.8123 69.3396 74.3949 69.9234C74.9781 70.5061 75.2992 71.2805 75.2992 72.1056C75.3004 72.929 74.9793 73.7034 74.3961 74.2861ZM33.6561 39.8437C37.9711 35.5293 43.2267 32.7412 47.0461 32.7412C48.4097 32.7412 49.4594 33.0987 50.1654 33.8016L50.1761 33.8118C51.3944 35.0372 51.5701 37.391 50.6569 40.2732C49.6018 43.601 47.2849 47.1696 44.1341 50.3204C39.8173 54.6354 34.5628 57.4229 30.7453 57.4229C29.7057 57.4229 28.8508 57.2132 28.1889 56.8033L27.5569 56.1713L27.5092 56.2189C25.215 53.6239 27.1214 46.3784 33.6561 39.8437ZM76.9238 67.3951C75.6662 66.1363 73.994 65.4434 72.2151 65.4434C71.0284 65.4434 69.8881 65.752 68.8872 66.3311L66.6181 64.0625C67.999 61.0492 69.7374 54.4877 66.9576 47.7653C65.9187 45.2483 64.3292 42.9106 62.2322 40.8142L52.711 31.2924C52.7062 31.2876 52.7027 31.2828 52.6985 31.2787C52.6949 31.2751 52.6901 31.2721 52.6866 31.2685L52.574 31.1553L52.5668 31.1619C51.1936 29.859 49.2926 29.1667 47.0455 29.1667C42.2551 29.1667 36.1564 32.289 31.1284 37.3165C23.3884 45.057 20.7368 54.5312 25.0917 58.8849C25.3324 59.1256 25.5975 59.34 25.8721 59.5408L34.6897 68.359C39.6797 73.3502 45.1158 74.5649 49.2241 74.5649C49.7627 74.5649 50.2774 74.544 50.7659 74.5077C53.669 74.295 56.2962 73.4866 57.9381 72.7443L60.2072 75.0141C58.7423 77.5597 59.095 80.875 61.2683 83.0489C62.5259 84.3071 64.1993 84.9999 65.9782 84.9999H65.9794C67.7583 84.9999 69.4306 84.3077 70.6894 83.0495C71.8529 81.8842 72.5195 80.3406 72.6184 78.7446C74.215 78.6463 75.7598 77.9785 76.925 76.8132C78.1827 75.5556 78.8749 73.8827 78.8737 72.1033C78.8737 70.3244 78.1803 68.6515 76.9238 67.3951Z" fill="#464646"/>
<path fill-rule="evenodd" clip-rule="evenodd" d="M41.4556 42.5444C42.1815 43.2703 42.1815 44.4481 41.4556 45.1739L38.1739 48.4556C37.4481 49.1815 36.2703 49.1815 35.5444 48.4556C34.8185 47.7297 34.8185 46.5519 35.5444 45.8261L38.8261 42.5444C39.5519 41.8185 40.7297 41.8185 41.4556 42.5444Z" fill="#464646"/>
</svg>
