<svg width="101" height="101" viewBox="0 0 101 101" fill="none" xmlns="http://www.w3.org/2000/svg">
<path fill-rule="evenodd" clip-rule="evenodd" d="M29.432 34.1487C35.8273 30.7303 42.4503 27.459 47.8546 22.4824C48.9041 21.7477 50.1556 22.4229 51.0302 23.1299C49.9013 24.2582 48.7841 25.4665 47.3581 26.2054C42.0792 28.4123 36.9681 31.1865 32.633 35.0073C30.84 35.4006 28.8271 35.7241 27.6143 37.285C27.8916 36.0847 28.3102 34.7726 29.432 34.1487ZM43.9682 28.6428C45.1046 27.8775 46.5432 27.8893 47.8561 27.716C51.4583 27.3613 55.4202 28.1337 57.9392 30.8289C55.9415 31.3972 54.2121 32.5816 52.6853 33.9399C51.7555 32.5842 50.6847 31.3358 49.4988 30.1918C48.9805 30.5321 48.4734 30.8925 47.9558 31.2358C45.4838 30.6256 42.4825 30.3517 40.3629 32.0577C38.435 33.7616 38.5717 36.5656 38.9625 38.847C36.7249 41.0766 34.6357 43.4602 32.8152 46.0315C31.1101 45.9709 29.1541 46.1597 27.9578 47.513C26.752 48.8685 26.791 50.7899 26.9902 52.457C26.8433 52.5818 26.5469 52.8351 26.3968 52.9606C24.9536 49.6536 24.4755 45.7442 25.9583 42.3424C26.9719 39.9249 28.9432 38.0358 31.1385 36.6141C30.6547 37.7218 30.3246 38.8914 30.2238 40.0923C30.1481 41.4595 29.4495 42.8861 30.1092 44.2067C30.5214 45.1303 31.6117 45.3717 32.4811 45.6901C32.1682 45.1102 31.6474 44.5783 31.7328 43.8708C31.7019 42.9468 32.3452 42.1137 32.1507 41.1853C31.8392 38.7299 32.4107 35.8337 34.6105 34.3168C37.7227 32.4141 40.8606 30.5509 43.9682 28.6428Z" fill="#464646"/>
<path fill-rule="evenodd" clip-rule="evenodd" d="M39.2321 38.7078C39.9394 34.8157 43.9044 32.1569 47.8631 31.6387C44.8838 33.8816 41.943 36.1752 39.2321 38.7078ZM42.0416 36.9793C44.0919 34.9348 46.3649 33.1397 48.6667 31.3982C50.5725 35.3775 52.7571 39.3058 53.7156 43.6576C54.5565 47.8861 54.2593 52.5479 52.0106 56.2929C50.8661 58.2854 49.451 60.1499 48.6946 62.3503C47.9898 64.2881 47.4765 66.4123 46.0088 67.9346C44.488 69.5125 42.2058 70.0093 40.0904 70.013C39.2714 70.055 38.53 69.3603 38.4691 68.5387C38.2839 67.2075 38.667 65.8922 38.9232 64.5995C41.6676 63.5882 44.0634 61.4672 45.0333 58.6325C43.4439 60.6141 41.8295 63.0594 39.1369 63.4805C39.3772 61.232 39.7299 58.9844 40.4433 56.8407C43.3824 56.0719 46.0781 54.1057 47.2867 51.2326C45.5545 53.1535 43.6705 55.504 40.8923 55.654C41.2917 54.2948 41.7485 52.9558 42.1828 51.6053C43.9434 51.2089 45.656 50.2184 46.5028 48.5521C45.3241 49.5529 44.1896 50.8879 42.5077 50.8818C42.8806 49.151 43.5373 47.5051 44.0626 45.8193C45.2242 45.4308 46.2446 44.6737 46.8638 43.5948C46.065 44.3107 45.2811 45.0767 44.2435 45.4299C45.4649 41.1966 46.9319 37.0403 48.2459 32.8358C45.7656 37.0221 43.6546 41.4207 41.5252 45.7967C40.7003 44.9408 40.5775 43.7223 40.1759 42.655C40.2709 43.9101 40.5529 45.1888 41.3608 46.1857C40.7436 47.545 40.159 48.9168 39.5341 50.2712C38.2094 49.2098 38.0122 47.4402 37.6233 45.8986C37.4621 47.7176 38.1174 49.5119 39.2936 50.8884C38.6218 52.4976 37.9982 54.1292 37.3892 55.7674C35.002 54.2359 34.5995 51.0628 34.2422 48.471C33.6507 51.5292 34.9352 54.6759 36.9932 56.9118C36.3883 58.6394 35.9545 60.421 35.404 62.1694C33.3141 60.4389 32.922 57.5676 32.4533 55.0516C32.0024 58.0607 33.2024 61.1132 35.2195 63.3151C34.8632 65.2326 34.6649 67.1906 34.8704 69.1388C32.6934 68.3611 30.5506 67.1877 29.1427 65.2797C28.4008 64.311 28.0486 63.1287 27.6787 61.984C25.8622 59.7791 26.3489 56.2671 28.2338 54.2641C27.8331 55.9745 27.4555 57.6997 27.364 59.4625C30.8686 51.162 35.6231 43.2983 42.0416 36.9793ZM57.8197 30.3113C59.3363 30.2435 60.956 30.1246 62.3068 30.8771C63.5404 31.4799 64.252 32.6656 64.7907 33.8335C63.8714 32.7739 62.9308 31.6682 61.6004 31.0504C60.4568 30.4337 59.1066 30.3985 57.8197 30.3113Z" fill="#464646"/>
<path fill-rule="evenodd" clip-rule="evenodd" d="M52.4423 34.4139C54.4486 33.1983 56.8501 32.1202 59.2409 32.6587C61.1101 33.0624 62.3369 34.6485 63.1155 36.2387C63.816 37.5354 63.9631 39.2415 63.0468 40.5004C61.8801 42.1154 59.8396 42.7821 57.9661 43.2511C58.373 45.0729 58.9407 47.0863 58.1103 48.8955C57.7876 49.6362 56.9847 49.9309 56.253 50.133C56.302 51.3845 55.8404 52.608 54.9738 53.5472C56.6243 47.1372 56.1973 40.0003 52.4423 34.4139ZM65.5044 33.6688C68.5626 34.1884 70.9767 36.5275 72.2116 39.3045C70.2436 38.4815 68.0382 38.6075 66.0514 39.294C66.1068 37.3929 65.3027 35.59 65.5044 33.6688ZM29.5024 49.9633C29.9649 48.7908 31.002 48.0732 32.0375 47.5531C30.9877 49.4014 30.0573 51.3279 29.2648 53.3248C29.1235 52.2004 29.0255 51.0004 29.5024 49.9633Z" fill="#464646"/>
<path fill-rule="evenodd" clip-rule="evenodd" d="M59.6878 45.6362C62.2174 44.5266 64.7882 42.7138 65.5062 39.8262C68.3679 39.9134 71.1558 41.4997 72.6225 44.058C73.8804 46.2805 74.8012 48.9042 74.3664 51.4838C74.0778 53.9858 73.222 56.5043 71.4353 58.2878C70.7528 57.8188 70.0401 57.4039 69.2949 57.0471C68.7112 54.6892 67.6035 51.9807 65.1397 51.1583C62.4598 50.3521 59.7128 51.7139 57.6008 53.2963C59.6975 52.216 62.3437 51.3558 64.594 52.5609C66.7323 53.7785 67.5218 56.4022 67.7891 58.7253C68.9968 59.1809 70.5967 59.7008 70.8615 61.1892C71.0055 62.6515 69.6788 63.5136 68.9826 64.5771C67.9793 67.224 66.7289 70.0087 64.3017 71.5763C62.6583 72.6731 60.5244 72.7111 58.7271 71.947C57.5008 72.7186 56.0328 73.5089 54.549 73.0228C53.0884 72.538 52.3198 71.0279 51.8401 69.6464C50.4647 69.8999 49.1214 69.3544 48.1321 68.3668C49.1618 64.6831 51.2454 61.4567 53.0427 58.1415C53.6982 57.0436 54.0262 55.7923 54.3834 54.5679C55.4572 53.8753 56.2534 52.8326 56.6256 51.5879C59.0243 50.7781 60.0069 48.0417 59.6878 45.6362Z" fill="#464646"/>
<path fill-rule="evenodd" clip-rule="evenodd" d="M73.29 58.6455C74.4212 57.2559 75.0929 55.5609 75.6997 53.8936C76.0659 54.3428 76.4637 54.8586 77.0975 54.9084C78.732 55.1097 80.2394 54.2409 81.6576 53.547C82.2464 56.266 80.984 59.0523 79.0577 60.9566C76.5774 61.8507 74.0196 62.6341 71.7642 64.039C72.2485 63.4835 72.7943 62.9138 72.9257 62.1633C73.151 61.1178 72.6126 60.0912 71.8858 59.3716C72.4298 59.3135 72.9616 59.104 73.29 58.6455ZM48.8121 70.9092C48.357 70.1447 48.5603 69.2026 48.5236 68.3782C49.0768 69.4319 49.8607 70.2158 50.7392 70.7688C50.1441 70.9136 49.4153 71.6248 48.8121 70.9092ZM71.6947 66.7561C73.0061 65.7471 74.2698 64.5602 75.8866 64.1135C74.254 70.5639 68.1259 74.5522 62.0831 75.4507C65.1619 72.4078 68.3812 69.5142 71.6947 66.7561Z" fill="#464646"/>
</svg>
