<svg width="100" height="100" viewBox="0 0 100 100" fill="none" xmlns="http://www.w3.org/2000/svg">
<path d="M44 50V49.9217C44 37.7865 38.2134 28 31 28C23.8659 28 18 37.7865 18 49.9217V50H44ZM39.2439 46.4769C38.8476 44.8327 38.5305 43.2669 38.0549 41.7794C37.9756 41.5445 37.8963 41.3096 37.8171 40.9964L39.1646 36.847L39.2439 36.9253C39.3232 37.0819 39.4024 37.3167 39.4817 37.4733C39.6402 37.9431 39.7988 38.3345 39.878 38.726C40.1159 39.5872 40.1951 40.4484 40.2744 41.3096C40.2744 43.1103 39.9573 44.911 39.2439 46.4769ZM38.372 35.4377L37.1037 39.274C37.0244 39.0391 36.9451 38.8043 36.7866 38.5694L36.5488 38.0214L36.4695 37.7865L36.311 37.5516C36.311 37.4733 36.2317 37.4733 36.2317 37.395L37.3415 34.0285C37.8171 34.4982 38.1341 34.968 38.372 35.4377ZM35.5976 32.2278L34.8049 34.7331C34.5671 34.4199 34.3293 34.0285 34.0915 33.7153C33.2195 32.5409 32.1098 31.4448 30.7622 30.3488C32.5061 30.3488 34.25 31.1317 35.5976 32.2278Z" fill="#464646"/>
<path d="M56.0793 50H82V49.9217C82 37.7865 76.2134 28 69 28C61.8659 28 56 37.7865 56 49.9217C56.0793 49.9217 56.0793 50 56.0793 50ZM77.561 46.7117C77.1646 45.0676 76.8476 43.5018 76.3719 42.0142C76.2927 41.7794 76.2134 41.5445 76.1341 41.2313L77.4817 37.0819L77.561 37.1601C77.6402 37.3167 77.7195 37.5516 77.7988 37.7082C77.9573 38.1779 78.1159 38.5694 78.1951 38.9609C78.4329 39.8221 78.5122 40.6833 78.5915 41.5445C78.5915 43.4235 78.2744 45.1459 77.561 46.7117ZM75.5 39.5089C75.4207 39.274 75.3415 39.0391 75.1829 38.8043L74.9451 38.2562L74.8659 38.0214L74.7073 37.7865C74.7073 37.7082 74.628 37.7082 74.628 37.6299L75.7378 34.2633C76.0549 34.7331 76.372 35.2028 76.689 35.6726L75.5 39.5089ZM73.9146 32.4626L73.122 34.968C72.8841 34.6548 72.6463 34.2633 72.4085 33.9502C71.5366 32.7758 70.4268 31.6797 69.0793 30.5836C70.8232 30.5836 72.5671 31.3665 73.9146 32.4626Z" fill="#464646"/>
<path d="M86.8775 54H81.4911H56.5109H43.6304H18.6502H14.1225C12.4051 54 11 55.4196 11 57.1546V63.5426C11 65.2776 12.4051 66.6972 14.1225 66.6972H18.8844L19.8211 68.8265L20.7579 70.9558L22.9437 76.082C23.7243 77.817 25.4417 79 27.3152 79H36.6047C38.4783 79 40.1176 77.7382 40.664 76.0032L42.1472 71.0347L42.7717 68.9054L43.3962 66.776H57.6038L58.2283 68.9054L58.8528 71.0347L60.336 76.0032C60.8824 77.817 62.5217 79 64.3953 79H73.6848C75.5583 79 77.2757 77.8959 78.0563 76.082L80.2421 70.9558L81.1789 68.8265L82.1156 66.6972H86.8775C88.5949 66.6972 90 65.2776 90 63.5426V57.1546C90 55.3407 88.5949 54 86.8775 54Z" fill="#464646"/>
</svg>
