<svg width="100" height="100" viewBox="0 0 100 100" fill="none" xmlns="http://www.w3.org/2000/svg">
<path d="M49.5 16.7646C31.4602 16.7646 16.7645 31.4603 16.7645 49.5002C16.7645 67.54 31.4602 82.2357 49.5 82.2357C67.5399 82.2357 82.2355 67.54 82.2355 49.5002C82.2355 31.4603 67.5399 16.7646 49.5 16.7646ZM78.4674 49.5002C78.4674 56.8009 75.7355 63.4893 71.2609 68.5762L30.4239 27.7393C35.5109 23.2646 42.1993 20.5328 49.5 20.5328C65.4674 20.5328 78.4674 33.5328 78.4674 49.5002ZM20.5326 49.5002C20.5326 42.1994 23.2645 35.511 27.7392 30.4241L68.5761 71.261C63.4892 75.7357 56.8008 78.4675 49.5 78.4675C33.5326 78.5146 20.5326 65.5146 20.5326 49.5002Z" fill="#464646"/>
<path d="M29.5761 56.3767C29.4819 57.5542 30.0472 58.402 30.9421 58.9672C32.5436 60.0035 34.0979 61.0397 35.7464 61.7462C41.3044 64.0542 47.1921 64.4781 53.1269 63.4419C53.9747 63.3006 54.8225 63.1122 55.6704 62.8767L50.7718 57.9781C50.3008 58.0723 49.7827 58.1665 49.3117 58.2607C48.2283 58.4491 47.0508 58.6375 46.1088 58.6375C42.1993 58.7317 38.5725 57.9781 35.2754 56.4709C34.0979 55.9998 33.0617 55.152 32.0254 54.3513C31.6486 54.0687 31.4602 53.5977 31.2718 53.1738C30.9892 52.7027 31.1305 52.2317 31.6486 52.0904C32.4022 51.7136 33.203 51.2897 34.0037 50.9129C34.9457 50.489 35.8878 50.1122 36.7827 49.5941C38.2899 48.6991 38.8551 47.5216 38.6667 45.873L36.6885 43.8948C36.6885 43.9419 36.6885 43.9419 36.6885 43.989C36.8769 44.6013 36.9711 45.2136 37.0653 45.8259C37.2537 46.6738 37.0182 47.4274 36.3117 47.8984C35.7464 48.2752 35.1341 48.652 34.4747 48.9346C33.3914 49.4056 32.2609 49.7825 31.2247 50.2535C30.0001 50.7716 29.482 51.7607 29.5291 53.0796C29.5291 54.21 29.6232 55.2933 29.5761 56.3767Z" fill="#464646"/>
<path d="M35.6049 51.3369C35.0868 51.6195 34.3332 52.0434 34.2861 52.4673C34.239 52.9854 34.8042 53.5507 35.2281 54.0688C35.5107 54.3985 35.8875 54.5398 36.3115 54.7282C39.1375 56.047 42.1991 56.2826 45.0252 56.471C46.4383 56.471 47.8042 56.471 49.123 56.3297L40.8332 48.0398C40.3622 48.9818 39.5144 49.7825 38.3368 50.3007C37.4419 50.7246 36.4999 50.913 35.6049 51.3369Z" fill="#464646"/>
<path d="M49.5 17C31.5543 17 17 31.6014 17 49.5C17 67.3986 31.6014 82 49.5 82C67.3986 82 82 67.3986 82 49.5C82 31.6014 67.4457 17 49.5 17ZM68.7645 71.4493C63.442 76.1594 56.6123 78.7029 49.5 78.7029C33.3913 78.7029 20.2971 65.6087 20.2971 49.5C20.2971 42.4348 22.8877 35.6051 27.5507 30.2355L27.7391 30.0471L68.9529 71.2609L68.7645 71.4493ZM55.7174 42.9058C55.6703 42.2464 55.4819 41.6341 55.3877 40.9746C55.3406 40.7391 55.529 40.0797 55.6703 39.9855C55.9529 39.7971 55.8587 39.7971 56.1884 39.75C56.2826 39.75 56.8007 39.9384 56.8007 40.5036C56.8007 40.8804 56.6123 41.3514 56.5652 41.7283C56.4239 43.4239 57.1304 44.5543 58.6848 45.1196C59.1558 45.308 60.2391 45.308 60.7572 45.3551C61.2754 45.4022 61.5109 45.7319 61.558 45.8732C61.6051 46.0616 61.6522 46.2029 61.4167 46.4384C61.087 46.8152 59.6268 46.6739 59.1558 46.2971C58.6848 45.9203 58.1196 45.4964 57.6014 45.1667C57.2246 44.9312 56.8949 44.7899 56.471 44.7428C55.8116 44.6957 55.5761 45.0725 55.2464 45.4022C54.7754 45.7319 54.3985 46.1558 53.9275 46.4855C53.6449 46.6739 53.3152 46.8152 52.9855 46.7681C52.75 46.7681 52.4203 46.4384 52.4203 46.25C52.3732 45.779 52.6558 45.7319 52.8442 45.5906C53.4094 45.2609 53.9746 45.1196 54.587 44.837C55.4819 44.4601 55.8116 43.8007 55.7174 42.9058ZM56.8949 54.5399C59.9565 53.2681 62.3587 51.2428 63.7246 48.1812C65.0906 45.1667 64.337 41.7754 61.6522 39.9855C60.1449 38.9964 58.4493 38.1957 56.7536 37.7717C52.7029 36.7355 48.6051 37.0652 44.7899 38.8551C43.9891 39.2319 43.1884 39.6087 42.4348 40.0326L40.9275 38.5254C43.2826 36.6413 46.0145 35.558 49.1232 35.2754C53.3152 34.8514 57.413 35.3696 61.134 37.3007C62.5942 38.0072 63.913 39.0906 65.0435 40.2681C67.163 42.529 67.2572 45.9674 65.5616 49.1703C63.8659 52.3732 61.3225 54.4928 58.2609 55.9058L56.8949 54.5399ZM71.4493 68.7645L71.2609 68.9529L62.2174 59.9094C63.3949 59.1087 64.4783 58.1667 65.5145 57.0833C67.3515 55.058 68.4819 52.75 68.3406 49.971C68.2935 49.2645 68.3406 48.558 68.3406 47.8514C68.3406 46.8623 68.2935 45.9674 68.3406 44.9783C68.3877 41.8696 67.0688 39.3261 64.6196 37.5362C59.2029 33.5797 53.1739 32.6848 46.721 34.0036C44.0833 34.5688 41.6812 35.6522 39.6558 37.3478L30.0471 27.7391L30.2355 27.5507C35.558 22.8406 42.3877 20.2971 49.5 20.2971C65.6087 20.2971 78.7029 33.3913 78.7029 49.5C78.7029 56.6123 76.1123 63.442 71.4493 68.7645Z" fill="#464646"/>
</svg>
