<svg width="100" height="100" viewBox="0 0 100 100" fill="none" xmlns="http://www.w3.org/2000/svg">
<path d="M38.3026 50.1562C36.6825 50.1562 21.5828 37.902 19.7683 36.5331C17.9538 35.1643 18.3426 37.9672 18.3426 40.9655C18.3426 43.3773 18.3426 51.3947 18.3426 54.5886C18.7314 54.719 19.0554 55.1101 19.0554 55.5664C19.0554 56.0878 18.6666 56.4789 18.213 56.6093C18.0186 57.5218 17.8241 59.1514 18.2778 59.0862C18.9258 58.9558 37.3305 73.8826 38.1082 74.7951C38.8859 75.7077 39.0803 73.2959 39.0155 72.9048C38.8859 72.5137 39.0155 53.3502 39.4043 52.3724C39.8579 51.3295 39.8579 50.1562 38.3026 50.1562Z" fill="#464646"/>
<path d="M52.5768 47.6142C57.2366 47.4172 79.3057 43.6086 81.0531 44.0682C82.2828 44.0682 83.1241 43.6742 79.7587 42.3609C76.3934 41.0475 70.8923 37.6329 70.3098 37.5015C69.7273 37.3702 56.3952 30.6065 56.0069 31.0662C55.6186 30.8035 54.1948 31.3945 53.224 31.5915C52.2532 31.7228 45.8461 32.3795 44.8753 32.5108C43.9045 32.6422 37.4973 33.0362 35.8146 33.6272C33.7436 33.8242 20.2821 33.5615 20.6057 34.0212C20.8646 34.4808 20.6057 34.2182 20.6057 34.2182C20.6057 34.2182 37.2385 48.1396 40.6038 48.9276C43.9692 49.7156 47.9171 47.8112 52.5768 47.6142ZM73.8046 40.5222C74.1282 40.5222 74.3871 40.7849 74.3871 41.1132C74.3871 41.4415 74.1282 41.7042 73.8046 41.7042C73.481 41.7042 73.2221 41.4415 73.2221 41.1132C73.1574 40.7849 73.4163 40.5222 73.8046 40.5222ZM73.1574 42.4265C73.481 42.4265 73.7399 42.6892 73.7399 43.0175C73.7399 43.3459 73.481 43.6086 73.1574 43.6086C72.8338 43.6086 72.5749 43.3459 72.5749 43.0175C72.5749 42.6892 72.8338 42.4265 73.1574 42.4265ZM70.7628 41.1132C71.2806 41.1132 71.6689 41.5072 71.6689 42.0325C71.6689 42.5579 71.2806 42.9519 70.7628 42.9519C70.2451 42.9519 69.8568 42.5579 69.8568 42.0325C69.8568 41.5072 70.2451 41.1132 70.7628 41.1132Z" fill="#464646"/>
<path d="M82.7858 45.9302C82.7858 45.2762 78.3243 46.061 78.1275 45.9302C77.9307 45.7994 68.0236 47.2381 67.5644 47.3035C67.1051 47.3689 60.2817 48.3499 58.7727 48.6115C57.2637 48.8731 50.6372 49.3963 50.6372 49.3963C49.7186 49.4617 45.7165 50.181 44.6667 50.508C43.5514 50.835 42.1736 50.6388 41.7143 50.6388C41.255 50.6388 41.3206 52.2084 40.9926 52.6008C40.6645 52.9931 40.5989 71.5007 40.7302 72.0239C40.8614 72.547 40.5333 74.7052 40.5333 74.9667C40.5333 75.2283 47.816 73.855 48.0784 73.7896C48.3408 73.6588 49.8499 73.201 50.7028 73.2664C51.6869 73.6588 54.8362 72.4162 55.0986 72.2854C55.361 72.1546 59.232 72.0239 60.3474 71.6315C61.0691 71.3699 64.8088 70.5197 67.2363 70.1273C67.3019 69.6041 67.7612 69.2118 68.2861 69.2118C68.7454 69.2118 69.139 69.4733 69.2702 69.8657C69.4671 70.1273 73.2068 69.4733 73.2068 69.3426C73.2068 69.2118 74.5846 68.6232 75.0439 68.8194C75.5687 68.9502 76.028 68.6886 76.2904 68.5578C76.5529 68.427 78.1275 68.1654 79.1116 68.0346C80.0958 67.9038 81.4736 67.773 82.4577 66.5958C83.4419 64.5031 82.7858 45.9302 82.7858 45.9302ZM44.6667 72.0239C44.0762 72.0239 43.5514 71.5007 43.5514 70.9121C43.5514 70.3235 44.0762 69.8003 44.6667 69.8003C45.2572 69.8003 45.7821 70.3235 45.7821 70.9121C45.7821 71.5007 45.3228 72.0239 44.6667 72.0239ZM44.2731 68.6886C43.2889 68.6886 42.5016 67.9038 42.5016 66.9228C42.5016 65.9419 43.2889 65.1571 44.2731 65.1571C45.2572 65.1571 46.0445 65.9419 46.0445 66.9228C46.0445 67.9038 45.2572 68.6886 44.2731 68.6886ZM47.5535 69.8657C47.0943 69.8657 46.7006 69.4733 46.7006 69.0156C46.7006 68.5578 47.0943 68.2308 47.5535 68.2308C48.0128 68.2308 48.3408 68.6232 48.3408 69.0156C48.3408 69.5387 48.0128 69.8657 47.5535 69.8657Z" fill="#464646"/>
</svg>
