<svg width="100" height="100" viewBox="0 0 100 100" fill="none" xmlns="http://www.w3.org/2000/svg">
<path fill-rule="evenodd" clip-rule="evenodd" d="M60.2872 71.9038C57.7058 73.4615 54.6081 74.1538 51.6825 74.1538C45.3151 74.1538 39.4639 70.6923 36.3662 65.1538C31.5476 56.6731 34.4732 45.7692 43.0779 40.9231C44.2825 40.2308 45.8314 39.5385 47.5523 39.0192C45.3151 37.8077 43.25 36.9423 41.529 36.4231C28.9662 32.2692 15.3709 39.1923 11.2407 51.6538C8.52503 59.8456 10.4146 67.821 15.4724 74.2231C17.9007 77.2952 21.6592 79 25.5588 79H76.9836C79.2639 79 81.3772 77.6119 82.1172 75.4433C82.1258 75.4173 82.1344 75.3913 82.143 75.3654C83.8639 70.5192 79.7337 64.1154 73.7104 57.8846C70.0965 63.9423 64.5895 69.4808 60.2872 71.9038Z" fill="#464646"/>
<path fill-rule="evenodd" clip-rule="evenodd" d="M88.4466 40.1131C87.5811 38.7376 86.0233 37.7059 84.4655 37.7059H84.2924C85.1579 35.9864 85.331 34.7828 84.4655 33.2353C83.6001 31.8597 82.2154 31 80.6576 31C79.9652 31 79.0998 31.1719 78.4074 31.6878C76.3304 32.8914 75.4649 35.6425 76.6765 37.7059C76.8496 37.8778 77.0227 38.2217 77.1958 38.3937L68.3683 43.3801C66.4643 42.3484 63.868 42.0045 61.0985 42.0045C55.3866 42.0045 48.8092 43.724 45.3475 45.6154C39.2893 49.0543 37.2123 56.6199 40.6741 62.638C42.9242 66.5928 47.2514 69 51.5787 69C53.6557 69 55.7328 68.4842 57.8098 67.4525C62.8294 64.5294 71.1377 55.2443 71.4839 48.8824L80.3114 43.8959C80.4845 44.2398 80.4845 44.4118 80.6576 44.7557C81.523 46.1312 82.9077 46.991 84.4655 46.991C85.1579 46.991 86.0233 46.6471 86.7157 46.3032C88.7927 45.0995 89.6582 42.1765 88.4466 40.1131Z" fill="#464646"/>
</svg>
