<svg width="101" height="101" viewBox="0 0 101 101" fill="none" xmlns="http://www.w3.org/2000/svg">
<path fill-rule="evenodd" clip-rule="evenodd" d="M56.2403 57.6948C56.1035 58.3081 55.5564 58.7415 54.9242 58.7415C54.6728 58.7415 54.4325 58.6277 54.2754 58.433C54.1165 58.2402 54.0573 57.9831 54.1091 57.7388C54.817 54.5122 57.3919 52.1101 60.4991 52.1101C60.8614 52.1101 61.2126 52.1652 61.5601 52.2295C58.9538 52.7033 56.8762 54.874 56.2403 57.6948ZM60.5009 50C55.8059 50 52 54.2532 52 59.5C52 64.7468 55.8059 69 60.5009 69C65.1922 69 69 64.7486 69 59.5C69 54.2532 65.1922 50 60.5009 50Z" fill="#464646"/>
<path fill-rule="evenodd" clip-rule="evenodd" d="M44.4726 49.389C46.4145 46.4932 47.4394 43.119 47.4394 39.6317C47.4394 36.0351 48.7968 32.7647 51 30.2934C50.8502 29.8633 50.6602 29.4499 50.5396 29.0105L50.483 28.8084C48.8954 23.1113 43.0586 19.7983 37.4409 21.4056C31.8251 23.0167 28.5586 28.9438 30.1462 34.6391L30.1516 34.6539C31.2587 38.6343 31.1564 42.8205 29.8666 46.7434C28.8326 49.8933 28.6828 53.3787 29.6401 56.8178C31.4359 63.2713 36.6407 67.7986 42.7114 69C41.6226 66.4916 41.007 63.7292 41.007 60.8167C41.007 56.7213 42.2054 52.7687 44.4726 49.389Z" fill="#464646"/>
<path fill-rule="evenodd" clip-rule="evenodd" d="M61.3073 73.7426C54.2281 73.7426 48.4696 67.9518 48.4696 60.8352C48.4696 58.2444 49.2323 55.7444 50.6765 53.6093C53.4765 49.4778 54.9538 44.6574 54.9538 39.6574C54.9538 36.0981 57.9086 33.2037 61.4473 33.2037C64.9878 33.2037 67.9425 36.0981 67.9425 39.6574V39.8648C67.9425 44.7907 69.3131 49.563 72.0541 53.6704C73.4707 55.7907 74.1781 58.2685 74.1781 60.8352C74.1836 67.9518 68.3846 73.7426 61.3073 73.7426ZM75.2999 51.2981C73.0452 47.9185 71.6304 43.9333 71.6304 39.8648V39.6574C71.6304 33.7444 67.3825 28.9463 61.4988 28.9463C55.6152 28.9463 51.3673 33.7444 51.3673 39.6574V39.6741C51.3673 43.8037 49.8125 47.8 47.5007 51.2148C45.6438 53.9555 44.3949 57.2704 44.3949 60.8352C44.3949 70.3148 51.9586 78 61.3865 78C70.8162 78 78.3209 70.3167 78.3209 60.8352C78.3228 57.3037 77.1181 54.0241 75.2999 51.2981Z" fill="#464646"/>
</svg>
