<svg width="101" height="101" viewBox="0 0 101 101" fill="none" xmlns="http://www.w3.org/2000/svg">
<path fill-rule="evenodd" clip-rule="evenodd" d="M55.9436 58.0673C53.4325 60.0822 51.3353 62.2322 49.791 63.9834C50.6532 61.2525 51.5106 58.2813 52.0976 56.1977C51.7426 55.9014 51.4084 55.5805 51.1028 55.2299C50.1622 55.6128 49.178 55.8537 48.1806 55.9538C47.277 57.2115 46.2956 58.682 45.4348 60.0075C45.6091 58.5766 45.7257 57.1119 45.8014 55.9226C45.0293 55.8244 44.2627 55.6415 43.5155 55.3696C42.2013 54.8913 41.0275 54.1751 40.0324 53.2768C40.5627 59.0027 39.388 64.9972 38.5387 68.376C38.3836 68.9934 38.1342 69.5593 37.7972 70.0583C37.4958 70.5049 37.4177 71.0541 37.5831 71.5653C37.7477 72.074 38.1303 72.4706 38.6328 72.6535L48.3917 76.2054C48.89 76.3868 49.4347 76.3312 49.8862 76.0528C50.3382 75.7743 50.6335 75.3117 50.6964 74.7836C50.7683 74.1814 50.9524 73.5877 51.2436 73.0186C53.1927 69.2099 58.064 60.9011 64.4903 58.482C63.7556 58.0571 63.0692 57.5545 62.4487 56.978C60.4991 58.155 58.1705 58.546 55.9436 58.0673Z" fill="#464646"/>
<path fill-rule="evenodd" clip-rule="evenodd" d="M54.4844 43.81C54.3134 43.856 54.1403 43.845 53.9854 43.7886C53.7409 43.6996 53.5417 43.4974 53.4682 43.2279C53.3482 42.7876 53.6085 42.3347 54.0497 42.2161C56.6492 41.5172 58.7487 39.5957 59.6656 37.0764C59.8215 36.6482 60.2962 36.4279 60.726 36.5843C61.1557 36.7408 61.3778 37.2147 61.222 37.6428C60.1216 40.6661 57.6029 42.9714 54.4844 43.81ZM75.5113 39.4748L75.512 39.4764C75.0369 39.2093 74.5392 38.9781 74.0234 38.7904C71.6013 37.9088 68.9707 37.993 66.6158 39.0272C66.4126 39.1166 66.1923 39.1176 65.9985 39.0471C65.7941 38.9726 65.6189 38.8184 65.5237 38.6041C65.3387 38.1869 65.5274 37.6998 65.9455 37.5161C68.6927 36.3096 71.762 36.2114 74.5878 37.2399C75.0161 37.3958 75.4322 37.5802 75.8373 37.7849C76.2991 33.369 73.7169 29.0214 69.3454 27.4303C66.2185 26.2922 62.7647 26.7912 60.1098 28.7134C58.9398 26.9847 57.2511 25.6622 55.2698 24.941C51.248 23.4772 46.7825 24.7426 44.1426 28.0143C43.739 27.8011 43.322 27.616 42.8961 27.461C37.7469 25.5868 32.0389 28.2355 30.1719 33.3651C28.3049 38.4947 30.9749 44.1927 36.1241 46.0669C36.7037 46.2778 37.3015 46.4307 37.9094 46.531C41.5797 46.9334 45.2465 45.2167 47.2709 42.1395C47.5212 41.7587 48.0349 41.6537 48.4169 41.9038C48.7993 42.1545 48.9062 42.6664 48.656 43.047C46.4771 46.3591 42.6679 48.32 38.729 48.2367C39.6863 50.5804 41.591 52.4464 44.0515 53.3419C46.5989 54.2691 49.4011 54.0147 51.7197 52.6813C52.5967 54.1004 53.9151 55.1761 55.5104 55.7567C58.0716 56.6889 60.9498 56.1255 62.9675 54.3698C64.0938 55.7426 65.5579 56.7799 67.2514 57.3963C72.4005 59.2704 78.1086 56.6218 79.9756 51.4922C81.6552 46.8775 79.7406 41.842 75.5113 39.4748Z" fill="#464646"/>
</svg>
