<svg width="100" height="100" viewBox="0 0 100 100" fill="none" xmlns="http://www.w3.org/2000/svg">
<path d="M51.3717 29L26 53L73 39.5763L51.3717 29ZM53.4513 36.1186C54.6991 36.1186 55.531 36.9322 55.531 38.1525C55.531 39.3729 54.6991 40.1864 53.4513 40.1864C52.2035 40.1864 51.3717 39.3729 51.3717 38.1525C51.3717 37.1356 52.2035 36.1186 53.4513 36.1186Z" fill="#464646"/>
<path d="M74 41L24 55.6429V65.0561C26.0833 65.0561 27.75 66.7296 27.75 68.8214C27.75 70.9133 26.0833 72.5867 24 72.5867V82L74 65.2653V41ZM54.8333 50.4133C56.9167 50.4133 58.5833 52.0867 58.5833 54.1786C58.5833 56.2704 56.9167 57.9439 54.8333 57.9439C52.75 57.9439 51.0833 56.2704 51.0833 54.1786C51.0833 52.0867 52.75 50.4133 54.8333 50.4133ZM67.3333 56.6888C68.7917 56.6888 69.8333 57.9439 70.0417 59.4082C70.0417 60.8724 68.7917 62.1276 67.3333 62.1276C65.875 62.1276 64.8333 60.8724 64.625 59.4082C64.625 57.9439 65.875 56.6888 67.3333 56.6888ZM34.8333 58.7806C36.9167 58.7806 38.5833 60.4541 38.5833 62.5459C38.5833 64.6378 36.9167 66.3112 34.8333 66.3112C32.75 66.3112 31.0833 64.6378 31.0833 62.5459C31.2917 60.4541 32.9583 58.7806 34.8333 58.7806ZM47.3333 62.9643C48.7917 62.9643 50.0417 64.2194 50.0417 65.6837C50.0417 67.148 48.7917 68.4031 47.3333 68.4031C45.875 68.4031 44.625 67.148 44.625 65.6837C44.625 64.2194 46.0833 62.9643 47.3333 62.9643Z" fill="#464646"/>
</svg>
