<svg width="100" height="100" viewBox="0 0 100 100" fill="none" xmlns="http://www.w3.org/2000/svg">
<path fill-rule="evenodd" clip-rule="evenodd" d="M9.92461 61.6957C10.2377 61.5865 10.645 61.4461 11.1112 61.291C11.2427 61.2667 11.375 61.2242 11.509 61.1601C13.5458 60.4945 16.4526 59.6348 18.0751 59.562C21.199 59.4207 24.6368 56.195 26.2887 54.6454L26.3709 54.5682C27.6327 53.3887 37.5691 49.0398 39.5929 48.4461C40.6567 48.135 41.6911 46.9086 43.2911 44.9326C44.7441 43.1378 46.556 40.9052 47.8204 40.7241C48.764 40.588 50.2697 40.1504 52.0141 39.6416C54.4461 38.9327 60.1421 37.2748 60.9439 38.0392C62.8042 39.9311 66.5819 38.1969 67.823 37.4854C68.2736 38.0912 68.6195 38.5652 68.7354 38.8356C69.2336 39.9874 56.5036 40.9442 54.6926 41.0448C52.8816 41.1444 47.746 40.9139 46.0777 43.624C44.4094 46.3332 38.3415 51.7082 36.1819 51.5791C34.0215 51.4491 33.6842 51.2394 32.597 53.8775C31.5099 56.5165 24.9681 58.0652 24.0971 59.0186C23.2245 59.9728 17.7759 62.285 16.4293 61.4461C15.0827 60.6063 10.1209 63.0347 10.1209 63.0347C10.0647 62.6776 9.99726 62.2166 9.92461 61.6957ZM9.37369 57.5721C42.3389 32.7118 59.7771 31.5504 64.4042 31.7931C64.4881 32.0592 64.5962 32.3296 64.7147 32.5991C62.6269 33.0298 57.3806 34.0638 52.7484 34.5864C48.9378 35.0162 45.2526 37.5157 42.0024 39.7196C40.0401 41.0517 38.1849 42.311 36.8314 42.6836C33.0571 43.728 24.8902 48.9947 21.7594 51.7498C19.3966 53.8298 12.0245 57.2029 9.47401 58.3382C9.43942 58.0782 9.40655 57.8217 9.37369 57.5721ZM15.6275 63.1257C18.3977 64.5453 24.3419 61.1428 24.4016 61.1064C24.8262 60.8446 25.1419 60.6054 25.3841 60.361C25.7049 60.1634 26.4885 59.841 27.247 59.529C28.5451 58.9952 30.159 58.3313 31.503 57.5036C32.9516 56.6118 33.8718 55.6576 34.3121 54.5873C34.6087 53.8688 34.786 53.53 34.8846 53.3714C35.0809 53.3714 35.3957 53.3922 35.6613 53.4095L36.0712 53.4355C37.039 53.4936 38.165 53.1053 39.6154 52.2126C42.4928 50.4412 46.2515 46.8835 47.6569 44.6007C47.8083 44.3546 48.0366 44.1396 48.3549 43.9438C49.8174 43.0433 52.4007 42.9731 53.9454 42.9315C54.2723 42.922 54.5594 42.915 54.7955 42.9012C54.9183 42.8951 67.1795 42.1784 69.5103 40.7432C70.6364 40.0498 70.78 38.885 70.4383 38.0946C70.2316 37.618 69.8571 37.1049 69.1557 36.1646C68.1309 34.79 65.7335 31.5712 66.0215 30.1014C66.2014 29.1879 65.8234 28.2779 65.0338 27.7293C61.4014 25.2004 42.4072 29.8249 23.612 41.3958C18.0466 44.8226 12.7129 48.7096 7.76071 52.9502L6.99963 53.6002L7.12417 54.5942C7.15704 54.856 7.9285 61.0405 8.28742 63.3242L8.67834 65.8115L10.9356 64.7065C12.7363 63.8242 14.9123 63.0962 15.6275 63.1257Z" fill="#464646"/>
<path fill-rule="evenodd" clip-rule="evenodd" d="M82.3939 56.1408C82.0022 57.6739 76.4767 59.7759 75.1884 59.6949C73.9002 59.6113 68.1144 63.017 65.5068 61.8754C62.9 60.733 62.8023 61.1158 61.3351 62.7014C59.8662 64.2853 51.7763 64.619 48.7009 63.8266C45.6265 63.0342 42.0825 66.7461 40.7078 67.9239C39.3323 69.1025 29.4915 77.2065 29.0549 76.0364C28.9529 75.7623 28.8742 75.1829 28.7808 74.4379C30.1668 74.0921 34.0903 72.7273 34.124 70.0846C34.1724 68.9818 39.4265 66.2391 41.6701 65.0682C43.2782 64.2276 44.6659 63.5024 45.4414 62.948C45.4959 62.9084 45.5573 62.8747 45.6221 62.842C45.9896 62.7394 46.3588 62.6437 46.7288 62.5531C48.0706 62.404 49.984 62.6376 51.6154 62.8411C54.134 63.1541 55.7274 63.3188 56.7105 62.8083C58.5788 61.8384 68.7481 58.0955 70.473 58.0713L70.5862 58.0705C72.8489 58.0394 77.5557 57.9799 79.9047 55.9244C81.506 54.5259 85.6361 52.5678 87.2563 51.828C87.565 52.2531 87.833 52.629 88.0396 52.9248C88.0396 52.9248 82.7856 54.6087 82.3939 56.1408ZM84.8044 48.4896C84.8683 48.574 84.9341 48.6646 84.998 48.7508C84.8779 48.7784 84.756 48.8206 84.6323 48.8801C83.3856 49.4802 82.1362 50.0665 80.8757 50.6158C77.6793 51.6591 73.8518 52.7748 71.8511 52.8636C67.6899 53.0498 58.1604 54.9096 54.7193 56.7677C53.4856 57.4333 51.2783 57.811 48.9421 58.211C45.0748 58.8723 40.6923 59.6233 37.6463 61.9479C33.9459 64.7707 29.4483 67.6531 27.6465 68.7852C27.5436 68.5093 27.4355 68.2412 27.3128 67.992C30.4815 64.6224 43.8584 53.4145 84.8044 48.4896ZM89.5631 51.8668C88.242 49.9786 84.526 45.0105 84.3695 44.7993L83.7712 44L82.7735 44.0586C76.2735 44.4363 69.7424 45.3295 63.3609 46.7143C41.8128 51.3909 24.9213 61.1882 24.0498 65.5097C23.8613 66.4486 24.2158 67.3626 24.9766 67.8937C26.2009 68.7499 26.6954 72.7169 26.9073 74.4103C27.0525 75.57 27.1355 76.196 27.3162 76.6805C27.6154 77.4824 28.5249 78.2196 29.8149 77.9394C32.4882 77.3591 41.8231 69.4069 41.9165 69.3276C42.0946 69.1741 42.3082 68.9809 42.5511 68.7611C43.6924 67.7256 45.604 65.9925 47.2804 65.6287C47.6453 65.5493 47.9582 65.5459 48.2375 65.6174C50.8287 66.2839 55.9963 66.2417 59.2956 65.5252C60.9582 65.1648 62.0389 64.6664 62.696 63.9551L62.9744 63.655C63.1525 63.4585 63.3661 63.2257 63.5079 63.0912C63.6885 63.1368 64.0508 63.2584 64.7615 63.5688C65.818 64.0327 67.1408 64.0818 68.8017 63.7214C70.3415 63.3869 71.9652 62.7489 73.2699 62.2367C74.0325 61.9366 74.8201 61.6263 75.1884 61.5461C75.5308 61.5547 75.9233 61.5073 76.4109 61.4012C76.4793 61.3866 83.1167 59.7242 84.1326 56.7927C84.6289 56.2779 86.6995 55.2976 88.6094 54.6871L91 53.9215L89.5631 51.8668Z" fill="#464646"/>
</svg>
