<svg width="101" height="101" viewBox="0 0 101 101" fill="none" xmlns="http://www.w3.org/2000/svg">
<path d="M52.5 26C44.6052 26 27 30.5436 27 41.6579C27 55.5084 41.4024 51.5639 41.4024 51.5639C41.4024 51.5639 38.1792 50.3457 38.1792 47.7693C38.1792 45.2528 39.3624 43.745 41.433 43.6851C44.8092 43.5952 44.7072 46.9504 44.8092 48.3784C45.1662 53.4213 38.2608 62.4486 39.546 67.142C40.8312 71.8753 48.1344 72.1948 52.5 71.9352C56.8758 72.1849 64.1688 71.8653 65.454 67.142C66.7392 62.4386 59.8338 53.4113 60.1908 48.3784C60.2928 46.9504 60.1908 43.5952 63.567 43.6851C65.6376 43.745 66.8208 45.2528 66.8208 47.7693C66.8208 50.3457 63.5976 51.5639 63.5976 51.5639C63.5976 51.5639 78 55.5084 78 41.6579C78 30.5436 59.9562 26 52.5 26Z" fill="#464646"/>
</svg>
