<svg width="100" height="100" viewBox="0 0 100 100" fill="none" xmlns="http://www.w3.org/2000/svg">
<path fill-rule="evenodd" clip-rule="evenodd" d="M34.3852 46.2557L25.2537 43.0552C24.7682 42.8836 24.2329 43.126 24.0566 43.5927C23.8802 44.0593 24.1301 44.5752 24.6148 44.7452L33.7463 47.9458C33.8518 47.9829 33.9598 48 34.0657 48C34.4473 48 34.8052 47.7736 34.9434 47.4084C35.1198 46.9417 34.8699 46.4258 34.3852 46.2557ZM68.9578 64.9654V66.4748C68.9578 70.0768 71.676 74.2186 71.676 76.0651C71.676 78.2387 69.9036 80.0011 67.7097 80C65.5148 80.0011 63.7433 78.2387 63.7433 76.0651C63.7433 74.2186 66.4616 70.0768 66.4616 66.4748V65.4456C66.4616 63.9792 65.4551 63.0304 64.5884 62.7715L21.0176 47.0808C20.2166 46.7914 19.8019 45.9118 20.0931 45.1197L24.9167 32.0066C25.1379 31.4047 25.7244 31 26.3754 31C26.5534 31 26.7292 31.0311 26.8977 31.0917L72.9826 47.6892C73.7833 47.9782 74.1983 48.8572 73.9068 49.6494L69.6111 61.327C69.0499 62.7442 68.9578 64.4021 68.9578 64.9654ZM78.4715 47.1603C76.6714 48.0648 76.2524 48.3463 75.3195 50.9691C75.3184 50.9723 71.9418 59.9796 71.0575 62.3394C70.8901 62.7853 71.0974 63.1492 71.5607 62.9387L78.6928 59.7022C79.7532 59.2206 81.0339 57.8604 81.4333 56.7911L85.9567 44.7165C86.1153 44.299 85.827 43.8179 85.2742 44.0695L78.4715 47.1603ZM72.1857 45.1997L28.2593 29.4991C27.839 29.3249 27.9688 28.8252 28.3689 28.6328C28.585 28.5288 35.3444 25.4323 35.3444 25.4323C35.9342 25.1618 36.8144 25 37.6992 25C38.3631 25 38.9811 25.0905 39.4397 25.2544C39.4397 25.2544 84.1161 41.2289 84.3737 41.3168C85.2409 41.613 85.1526 42.4761 84.4456 42.7772C83.6841 43.1018 78.2267 45.6176 78.2267 45.6176C76.757 46.2036 74.9132 46.155 72.1857 45.1997Z" fill="#464646"/>
</svg>
